<svg width="24" height="24" viewBox="0 0 24 24" fill="none" xmlns="http://www.w3.org/2000/svg">
<path d="M12.766 7.979C12.98 7.76495 13.2342 7.59515 13.5138 7.4793C13.7935 7.36346 14.0933 7.30383 14.396 7.30383C14.6987 7.30383 14.9985 7.36346 15.2781 7.4793C15.5578 7.59515 15.8119 7.76495 16.026 7.979C16.24 8.19306 16.4098 8.44718 16.5257 8.72685C16.6415 9.00653 16.7012 9.30628 16.7012 9.609C16.7012 9.91172 16.6415 10.2115 16.5257 10.4912C16.4098 10.7708 16.24 11.0249 16.026 11.239C15.5937 11.6713 15.0074 11.9142 14.396 11.9142C13.7846 11.9142 13.1983 11.6713 12.766 11.239C12.3337 10.8067 12.0908 10.2204 12.0908 9.609C12.0908 8.99763 12.3337 8.4113 12.766 7.979ZM14.965 9.039C14.8901 8.96421 14.8013 8.9049 14.7035 8.86445C14.6057 8.824 14.5009 8.80321 14.3951 8.80325C14.2893 8.8033 14.1846 8.82419 14.0868 8.86472C13.9891 8.90526 13.9003 8.96465 13.8255 9.0395C13.6744 9.19067 13.5896 9.39566 13.5897 9.60935C13.5898 9.71517 13.6107 9.81993 13.6512 9.91767C13.6917 10.0154 13.7511 10.1042 13.826 10.179C13.9772 10.33 14.1821 10.4148 14.3958 10.4147C14.6095 10.4147 14.8144 10.3297 14.9655 10.1785C15.1165 10.0273 15.2013 9.82235 15.2012 9.60865C15.2011 9.39495 15.1162 9.19004 14.965 9.039Z" fill="#6500FF"/>
<path d="M20.6222 4.04304C20.6029 3.87463 20.5272 3.71771 20.4074 3.59786C20.2875 3.478 20.1306 3.40228 19.9622 3.38304C18.0651 3.16394 16.1431 3.37685 14.34 4.00583C12.5368 4.63481 10.8994 5.66355 9.55018 7.01504C8.89487 7.6693 8.31307 8.39327 7.81518 9.17404C6.11852 9.23955 4.50932 9.94395 3.31018 11.146C2.81812 11.6386 2.40463 12.2039 2.08418 12.822C2.0194 12.9474 1.9913 13.0885 2.00313 13.2292C2.01495 13.3698 2.06621 13.5042 2.15102 13.617C2.23583 13.7298 2.35075 13.8164 2.48256 13.8668C2.61438 13.9172 2.75774 13.9295 2.89618 13.902C4.08872 13.6644 5.32496 13.7862 6.44818 14.252L9.75018 17.552C10.2164 18.6759 10.3382 19.9129 10.1002 21.106C10.0727 21.2444 10.0848 21.3878 10.135 21.5196C10.1853 21.6514 10.2718 21.7664 10.3845 21.8513C10.4971 21.9362 10.6315 21.9876 10.7721 21.9996C10.9126 22.0115 11.0537 21.9836 11.1792 21.919C11.7977 21.5984 12.3633 21.1845 12.8562 20.692C14.0578 19.4934 14.7622 17.885 14.8282 16.189C15.6097 15.6906 16.3344 15.1082 16.9892 14.452C18.3404 13.1033 19.3691 11.4663 19.9982 9.66377C20.6274 7.86121 20.8407 5.93969 20.6222 4.04304ZM13.2082 17.061C12.9856 18.0731 12.4657 18.9955 11.7152 19.71C11.6976 19.0326 11.5907 18.3605 11.3972 17.711C12.0162 17.5408 12.6213 17.3235 13.2072 17.061M6.29118 12.605C5.64151 12.4108 4.96903 12.3032 4.29118 12.285L4.37018 12.206C5.07482 11.4994 5.96692 11.0091 6.94118 10.793C6.67718 11.3837 6.46051 11.9877 6.29118 12.605ZM10.6102 8.07504C11.7268 6.95587 13.0686 6.08696 14.5467 5.52595C16.0247 4.96494 17.6052 4.72465 19.1832 4.82104C19.279 6.39861 19.0384 7.97853 18.4772 9.45603C17.916 10.9335 17.0471 12.2748 15.9282 13.391C14.481 14.8433 12.6607 15.8677 10.6682 16.351L7.65118 13.334C8.13313 11.3418 9.1573 9.52188 10.6102 8.07604" fill="#6500FF"/>
<path d="M3.02987 20.25C3.03657 20.4395 3.11475 20.6193 3.2487 20.7535C3.38265 20.8876 3.56243 20.9661 3.75187 20.973H3.78387C3.89883 20.9768 4.01386 20.9778 4.12887 20.976C4.35087 20.973 4.65687 20.963 4.98587 20.932C5.31187 20.902 5.68187 20.849 6.02587 20.755C6.34587 20.667 6.74687 20.515 7.03887 20.223C7.25292 20.009 7.42272 19.7548 7.53857 19.4752C7.65441 19.1955 7.71404 18.8957 7.71404 18.593C7.71404 18.2903 7.65441 17.9905 7.53857 17.7109C7.42272 17.4312 7.25292 17.1771 7.03887 16.963C6.82481 16.749 6.57069 16.5792 6.29102 16.4633C6.01134 16.3475 5.71159 16.2878 5.40887 16.2878C4.7975 16.2878 4.21117 16.5307 3.77887 16.963C3.48687 17.255 3.33587 17.656 3.24787 17.977C3.15811 18.3178 3.09855 18.6658 3.06987 19.017C3.03463 19.4166 3.02127 19.8179 3.02987 20.219V20.25ZM4.83987 18.024C4.99078 17.873 5.19551 17.7881 5.40902 17.788C5.62253 17.7879 5.82733 17.8726 5.97837 18.0235C6.12941 18.1744 6.21432 18.3791 6.21441 18.5927C6.2145 18.8062 6.12978 19.011 5.97887 19.162C5.95219 19.183 5.92296 19.2004 5.89187 19.214C5.8065 19.2534 5.71782 19.2852 5.62687 19.309C5.37071 19.3729 5.10989 19.4163 4.84687 19.439C4.74154 19.449 4.63954 19.4567 4.54087 19.462C4.5462 19.3633 4.55387 19.2613 4.56387 19.156C4.58987 18.876 4.63187 18.601 4.69387 18.376C4.72454 18.2633 4.75587 18.175 4.78787 18.111C4.80144 18.0799 4.81892 18.0507 4.83987 18.024Z" fill="#6500FF"/>
</svg>
