<svg width="32" height="32" viewBox="0 0 32 32" fill="none" xmlns="http://www.w3.org/2000/svg">
<path d="M14.5601 13.9175C14.5601 13.67 14.624 13.4266 14.7455 13.211C14.867 12.9953 15.0421 12.8146 15.2538 12.6863C15.4655 12.5581 15.7067 12.4865 15.9541 12.4786C16.2015 12.4707 16.4468 12.5267 16.6662 12.6412C16.8857 12.7557 17.0719 12.9249 17.2069 13.1323C17.342 13.3398 17.4212 13.5785 17.4371 13.8256C17.453 14.0726 17.4049 14.3195 17.2975 14.5426C17.1901 14.7656 17.0271 14.9572 16.8241 15.0988C16.4641 15.3521 16.0267 15.6881 15.6774 16.1121C15.3214 16.5415 15.0001 17.1241 15.0001 17.8455C15.0001 18.1107 15.1054 18.3651 15.293 18.5526C15.4805 18.7401 15.7348 18.8455 16.0001 18.8455C16.2653 18.8455 16.5196 18.7401 16.7072 18.5526C16.8947 18.3651 17.0001 18.1107 17.0001 17.8455C17.0001 17.7455 17.0401 17.6002 17.2161 17.3882C17.4394 17.1402 17.693 16.9211 17.9707 16.7361C18.4554 16.3974 18.8445 15.9395 19.1006 15.4065C19.3567 14.8736 19.4712 14.2836 19.4328 13.6936C19.3945 13.1035 19.2047 12.5333 18.8818 12.038C18.5589 11.5426 18.1138 11.1389 17.5894 10.8657C17.065 10.5925 16.479 10.4591 15.888 10.4784C15.2971 10.4976 14.721 10.6689 14.2155 10.9756C13.71 11.2824 13.2921 11.7142 13.0021 12.2295C12.7122 12.7448 12.5599 13.3262 12.5601 13.9175C12.5601 14.1827 12.6654 14.4371 12.853 14.6246C13.0405 14.8121 13.2948 14.9175 13.5601 14.9175C13.8253 14.9175 14.0796 14.8121 14.2672 14.6246C14.4547 14.4371 14.5601 14.1827 14.5601 13.9175ZM16.0001 19.5228C15.7348 19.5228 15.4805 19.6282 15.293 19.8157C15.1054 20.0032 15.0001 20.2576 15.0001 20.5228C15.0001 20.788 15.1054 21.0424 15.293 21.2299C15.4805 21.4175 15.7348 21.5228 16.0001 21.5228C16.2653 21.5228 16.5196 21.4175 16.7072 21.2299C16.8947 21.0424 17.0001 20.788 17.0001 20.5228C17.0001 20.2576 16.8947 20.0032 16.7072 19.8157C16.5196 19.6282 16.2653 19.5228 16.0001 19.5228Z" fill="#6500FF"/>
<path fill-rule="evenodd" clip-rule="evenodd" d="M15.9998 2.6665C8.63584 2.6665 2.6665 8.63584 2.6665 15.9998C2.6665 23.3638 8.63584 29.3332 15.9998 29.3332C23.3638 29.3332 29.3332 23.3638 29.3332 15.9998C29.3332 8.63584 23.3638 2.6665 15.9998 2.6665ZM4.6665 15.9998C4.6665 12.9941 5.86055 10.1114 7.98596 7.98596C10.1114 5.86055 12.9941 4.6665 15.9998 4.6665C19.0056 4.6665 21.8883 5.86055 24.0137 7.98596C26.1391 10.1114 27.3332 12.9941 27.3332 15.9998C27.3332 19.0056 26.1391 21.8883 24.0137 24.0137C21.8883 26.1391 19.0056 27.3332 15.9998 27.3332C12.9941 27.3332 10.1114 26.1391 7.98596 24.0137C5.86055 21.8883 4.6665 19.0056 4.6665 15.9998Z" fill="#6500FF"/>
</svg>
