<svg width="25" height="25" viewBox="0 0 25 25" fill="none" xmlns="http://www.w3.org/2000/svg">
<path d="M9.11305 3.14445C9.99547 2.91948 10.9222 2.93634 11.7959 3.19324C12.6695 3.45015 13.4579 3.93763 14.078 4.60445C14.7256 4.28596 15.4478 4.15046 16.1668 4.2126C16.8857 4.27473 17.574 4.53213 18.1573 4.95698C18.7406 5.38184 19.1967 5.958 19.4763 6.62322C19.756 7.28845 19.8486 8.01744 19.744 8.73145C20.5299 9.25982 21.1253 10.0266 21.4425 10.9189C21.7597 11.8111 21.782 12.7817 21.506 13.6875C21.23 14.5934 20.6704 15.3867 19.9096 15.9505C19.1488 16.5144 18.227 16.819 17.28 16.8194H16.998V19.2354C16.998 19.6494 17.334 19.9854 17.748 19.9854H18.238C18.467 19.6824 18.83 19.4854 19.238 19.4854H19.248C19.5796 19.4854 19.8975 19.6171 20.1319 19.8516C20.3664 20.086 20.498 20.4039 20.498 20.7354C20.498 21.067 20.3664 21.3849 20.1319 21.6193C19.8975 21.8538 19.5796 21.9854 19.248 21.9854H19.238C18.829 21.9854 18.466 21.7894 18.238 21.4854H17.748C17.1513 21.4854 16.579 21.2484 16.1571 20.8264C15.7351 20.4045 15.498 19.8322 15.498 19.2354V16.8194H13.248V20.7284C13.4602 20.8844 13.6176 21.1034 13.6979 21.3542C13.7782 21.605 13.7773 21.8747 13.6953 22.1249C13.6132 22.3751 13.4543 22.593 13.2411 22.7475C13.0279 22.9021 12.7714 22.9853 12.508 22.9854H12.498C12.2357 22.9854 11.98 22.9029 11.7672 22.7495C11.5543 22.5961 11.3952 22.3796 11.3122 22.1307C11.2292 21.8818 11.2267 21.6132 11.3049 21.3627C11.3831 21.1123 11.5382 20.8929 11.748 20.7354V16.8194H9.49805V19.2354C9.49805 19.8322 9.261 20.4045 8.83904 20.8264C8.41708 21.2484 7.84479 21.4854 7.24805 21.4854H6.75805C6.53105 21.7894 6.16805 21.9854 5.75805 21.9854H5.74805C5.41653 21.9854 5.09859 21.8538 4.86416 21.6193C4.62974 21.3849 4.49805 21.067 4.49805 20.7354C4.49805 20.4039 4.62974 20.086 4.86416 19.8516C5.09859 19.6171 5.41653 19.4854 5.74805 19.4854H5.75805C6.16805 19.4854 6.53005 19.6824 6.75805 19.9854H7.24805C7.44696 19.9854 7.63773 19.9064 7.77838 19.7658C7.91903 19.6251 7.99805 19.4344 7.99805 19.2354V16.8194H7.71605C6.76171 16.8187 5.83323 16.5092 5.06941 15.937C4.3056 15.3649 3.74749 14.5609 3.47851 13.6452C3.20953 12.7296 3.24413 11.7514 3.57715 10.8571C3.91017 9.96274 4.52371 9.20019 5.32605 8.68345C5.17502 7.45734 5.47632 6.21824 6.17347 5.19838C6.87062 4.17851 7.91578 3.44889 9.11305 3.14445ZM8.78505 15.3184H17.281C17.9406 15.3177 18.5804 15.0938 19.0964 14.6831C19.6124 14.2724 19.9742 13.6991 20.1228 13.0565C20.2714 12.414 20.1982 11.7401 19.915 11.1445C19.6318 10.5489 19.1552 10.0667 18.563 9.77645C18.4025 9.69788 18.2752 9.56452 18.2043 9.40042C18.1333 9.23632 18.1233 9.05227 18.176 8.88145C18.3286 8.38574 18.3206 7.85449 18.1532 7.36361C17.9857 6.87273 17.6674 6.44732 17.2437 6.14818C16.82 5.84904 16.3126 5.69147 15.794 5.69799C15.2754 5.7045 14.7721 5.87476 14.356 6.18445C14.2755 6.24429 14.1839 6.28738 14.0864 6.31116C13.989 6.33494 13.8877 6.33893 13.7887 6.32289C13.6897 6.30686 13.5949 6.27112 13.5099 6.21779C13.425 6.16447 13.3515 6.09464 13.294 6.01245C12.8163 5.33019 12.1155 4.83607 11.3124 4.61536C10.5093 4.39465 9.65431 4.46119 8.89502 4.80349C8.13574 5.1458 7.51975 5.7424 7.15335 6.49036C6.78695 7.23831 6.69312 8.0907 6.88805 8.90045C6.92864 9.06838 6.91001 9.24518 6.83531 9.40096C6.76061 9.55675 6.63441 9.68196 6.47805 9.75545C5.87736 10.0376 5.39069 10.5159 5.09823 11.1116C4.80577 11.7074 4.72496 12.385 4.86912 13.0328C5.01328 13.6806 5.37381 14.2599 5.89131 14.6754C6.40881 15.0909 7.0524 15.3177 7.71605 15.3184H8.78505Z" fill="#6500FF"/>
</svg>
