<svg width="26" height="25" viewBox="0 0 26 25" fill="none" xmlns="http://www.w3.org/2000/svg">
<path fill-rule="evenodd" clip-rule="evenodd" d="M5.35989 6.1875C5.35989 6.78424 5.59694 7.35653 6.0189 7.77849C6.44085 8.20045 7.01315 8.4375 7.60989 8.4375H16.6099C17.1633 8.43748 17.6973 8.23349 18.1098 7.86453C18.5223 7.49556 18.7844 6.98751 18.8459 6.4375H19.4999C19.6988 6.4375 19.8896 6.51652 20.0302 6.65717C20.1709 6.79782 20.2499 6.98859 20.2499 7.1875V9.1875C20.2499 9.38641 20.1709 9.57718 20.0302 9.71783C19.8896 9.85848 19.6988 9.9375 19.4999 9.9375H13.6099C13.0131 9.9375 12.4409 10.1746 12.0189 10.5965C11.5969 11.0185 11.3599 11.5908 11.3599 12.1875V13.5655C10.9211 13.7206 10.5412 14.008 10.2726 14.3881C10.0039 14.7681 9.85975 15.2221 9.85989 15.6875V20.6875C9.85989 21.2842 10.0969 21.8565 10.5189 22.2785C10.9409 22.7004 11.5131 22.9375 12.1099 22.9375C12.7066 22.9375 13.2789 22.7004 13.7009 22.2785C14.1228 21.8565 14.3599 21.2842 14.3599 20.6875V15.6875C14.36 15.2221 14.2158 14.7681 13.9472 14.3881C13.6786 14.008 13.2987 13.7206 12.8599 13.5655V12.1875C12.8599 11.9886 12.9389 11.7978 13.0796 11.6572C13.2202 11.5165 13.411 11.4375 13.6099 11.4375H19.4999C20.0966 11.4375 20.6689 11.2004 21.0909 10.7785C21.5128 10.3565 21.7499 9.78424 21.7499 9.1875V7.1875C21.7499 6.59094 21.513 6.01879 21.0912 5.59686C20.6695 5.17494 20.0974 4.93777 19.5009 4.9375H18.8459C18.7844 4.38732 18.5222 3.87913 18.1095 3.51014C17.6968 3.14115 17.1625 2.93727 16.6089 2.9375H7.60889C7.01215 2.9375 6.43985 3.17455 6.0179 3.59651C5.59594 4.01847 5.35889 4.59076 5.35889 5.1875L5.35989 6.1875ZM7.60989 6.9375C7.41097 6.9375 7.22021 6.85848 7.07956 6.71783C6.9389 6.57718 6.85989 6.38641 6.85989 6.1875V5.1875C6.85989 4.98859 6.9389 4.79782 7.07956 4.65717C7.22021 4.51652 7.41097 4.4375 7.60989 4.4375H16.6099C16.8088 4.4375 16.9996 4.51652 17.1402 4.65717C17.2809 4.79782 17.3599 4.98859 17.3599 5.1875V6.1875C17.3599 6.38641 17.2809 6.57718 17.1402 6.71783C16.9996 6.85848 16.8088 6.9375 16.6099 6.9375H7.60989ZM11.3599 15.6875C11.3599 15.4886 11.4389 15.2978 11.5796 15.1572C11.7202 15.0165 11.911 14.9375 12.1099 14.9375C12.3088 14.9375 12.4996 15.0165 12.6402 15.1572C12.7809 15.2978 12.8599 15.4886 12.8599 15.6875V20.6875C12.8599 20.8864 12.7809 21.0772 12.6402 21.2178C12.4996 21.3585 12.3088 21.4375 12.1099 21.4375C11.911 21.4375 11.7202 21.3585 11.5796 21.2178C11.4389 21.0772 11.3599 20.8864 11.3599 20.6875V15.6875Z" fill="#6500FF"/>
</svg>
