<svg width="25" height="24" viewBox="0 0 25 24" fill="none" xmlns="http://www.w3.org/2000/svg">
<path d="M15.329 11.4961C14.5263 11.4973 13.7453 11.236 13.105 10.7521C13.397 10.3301 13.628 9.8621 13.786 9.3621C14.0944 9.66638 14.4859 9.87267 14.9113 9.95503C15.3366 10.0374 15.7768 9.99216 16.1766 9.825C16.5763 9.65785 16.9176 9.37624 17.1577 9.01559C17.3978 8.65494 17.5259 8.23136 17.5259 7.7981C17.5259 7.36484 17.3978 6.94125 17.1577 6.58061C16.9176 6.21996 16.5763 5.93835 16.1766 5.77119C15.7768 5.60404 15.3366 5.5588 14.9113 5.64116C14.4859 5.72353 14.0944 5.92982 13.786 6.2341C13.6299 5.73944 13.4007 5.27092 13.106 4.8441C13.5742 4.49145 14.1195 4.25517 14.6969 4.15475C15.2744 4.05434 15.8675 4.09267 16.4272 4.26658C16.987 4.44049 17.4973 4.74499 17.9162 5.15497C18.3351 5.56495 18.6505 6.06865 18.8364 6.62452C19.0223 7.1804 19.0734 7.7725 18.9854 8.352C18.8974 8.93149 18.6729 9.48176 18.3304 9.95741C17.9879 10.4331 17.5372 10.8205 17.0156 11.0876C16.4939 11.3548 15.9161 11.4941 15.33 11.4941M14.772 13.1901C15.0213 13.4381 15.246 13.6938 15.446 13.9571C16.796 13.9831 17.764 14.3141 18.468 14.7651C19.1355 15.1977 19.6732 15.8032 20.024 16.5171C20.356 17.1701 20.52 17.8321 20.6 18.3371C20.64 18.588 20.6641 18.8412 20.672 19.0951V19.1361L20.673 19.1381C20.6698 19.337 20.7458 19.529 20.8842 19.6719C21.0226 19.8148 21.2121 19.8969 21.411 19.9001C21.6099 19.9033 21.8019 19.8273 21.9448 19.6889C22.0877 19.5505 22.1698 19.361 22.173 19.1621L22.172 19.0691C22.172 19.0158 22.1693 18.9428 22.164 18.8501C22.1484 18.6 22.121 18.3507 22.082 18.1031C21.9607 17.315 21.7179 16.5506 21.362 15.8371C20.8899 14.8852 20.1696 14.0785 19.277 13.5021C18.271 12.8571 16.96 12.4551 15.274 12.4551C14.8286 12.4551 14.4086 12.4821 14.014 12.5361C14.2853 12.7381 14.538 12.9568 14.772 13.1901Z" fill="#6500FF"/>
<path fill-rule="evenodd" clip-rule="evenodd" d="M5.13184 7.79905C5.13184 7.31355 5.22746 6.83281 5.41325 6.38427C5.59904 5.93573 5.87136 5.52818 6.21466 5.18488C6.55796 4.84158 6.96551 4.56926 7.41406 4.38347C7.8626 4.19768 8.34334 4.10205 8.82884 4.10205C9.31433 4.10205 9.79508 4.19768 10.2436 4.38347C10.6922 4.56926 11.0997 4.84158 11.443 5.18488C11.7863 5.52818 12.0586 5.93573 12.2444 6.38427C12.4302 6.83281 12.5258 7.31355 12.5258 7.79905C12.5258 8.77956 12.1363 9.7199 11.443 10.4132C10.7497 11.1065 9.80934 11.4961 8.82884 11.4961C7.84833 11.4961 6.90798 11.1065 6.21466 10.4132C5.52134 9.7199 5.13184 8.77956 5.13184 7.79905ZM8.82884 5.60205C8.53644 5.59581 8.24575 5.64801 7.9738 5.75559C7.70184 5.86318 7.45411 6.02397 7.24511 6.22855C7.03612 6.43314 6.87007 6.67739 6.75672 6.94698C6.64336 7.21658 6.58497 7.50609 6.58497 7.79855C6.58497 8.09101 6.64336 8.38053 6.75672 8.65012C6.87007 8.91972 7.03612 9.16397 7.24511 9.36855C7.45411 9.57313 7.70184 9.73393 7.9738 9.84151C8.24575 9.94909 8.53644 10.0013 8.82884 9.99505C9.40327 9.98279 9.95004 9.74599 10.352 9.3354C10.7539 8.92482 10.979 8.37311 10.979 7.79855C10.979 7.22399 10.7539 6.67229 10.352 6.2617C9.95004 5.85111 9.40327 5.61431 8.82884 5.60205Z" fill="#6500FF"/>
<path d="M3.375 19.1371C3.37832 19.336 3.30248 19.5281 3.16417 19.6711C3.02586 19.8141 2.83641 19.8963 2.6375 19.8996C2.43859 19.9029 2.24651 19.8271 2.10351 19.6887C1.96051 19.5504 1.87832 19.361 1.875 19.1621V19.1311C1.87504 19.0373 1.87837 18.9436 1.885 18.8501C1.94407 17.8016 2.217 16.7762 2.687 15.8371C3.1588 14.8853 3.8788 14.0786 4.771 13.5021C5.777 12.8571 7.087 12.4551 8.774 12.4551C10.46 12.4551 11.771 12.8571 12.777 13.5021C13.6692 14.0786 14.3892 14.8853 14.861 15.8371C15.2169 16.5506 15.4598 17.315 15.581 18.1031C15.6305 18.423 15.6606 18.7456 15.671 19.0691L15.673 19.1321V19.1601C15.673 19.1601 15.673 19.1621 14.928 19.1491L15.672 19.1621C15.6688 19.361 15.5867 19.5505 15.4438 19.6889C15.3009 19.8273 15.1089 19.9033 14.91 19.9001C14.7111 19.8969 14.5216 19.8148 14.3832 19.6719C14.2448 19.529 14.1688 19.337 14.172 19.1381V19.1361V19.0961L14.166 18.9361C14.154 18.7354 14.132 18.5355 14.1 18.3371C14.0031 17.7043 13.8088 17.0904 13.524 16.5171C13.173 15.803 12.6349 15.1976 11.967 14.7651C11.234 14.2951 10.213 13.9551 8.774 13.9551C7.335 13.9551 6.314 14.2951 5.58 14.7651C4.91251 15.1977 4.37477 15.8032 4.024 16.5171C3.73885 17.0903 3.54421 17.7043 3.447 18.3371C3.40542 18.5999 3.38137 18.8651 3.375 19.1311V19.1371Z" fill="#6500FF"/>
</svg>
