<svg width="320" height="180" viewBox="0 0 320 180" fill="none" xmlns="http://www.w3.org/2000/svg">
<g clip-path="url(#clip0_231_492)">
<rect width="320" height="180" rx="8" fill="white"/>
<mask id="path-3-inside-1_231_492" fill="white">
<path d="M0 0H320V24H0V0Z"/>
</mask>
<path d="M0 0H320V24H0V0Z" fill="white"/>
<path d="M320 24V23H0V24V25H320V24Z" fill="#6500FF" fill-opacity="0.05" mask="url(#path-3-inside-1_231_492)"/>
<path d="M26.5422 14.5422C27.9463 14.5422 29.0844 13.404 29.0844 12C29.0844 10.596 27.9463 9.45776 26.5422 9.45776C25.1382 9.45776 24 10.596 24 12C24 13.404 25.1382 14.5422 26.5422 14.5422Z" fill="#6500FF" fill-opacity="0.05"/>
<path d="M34.1692 14.5422C35.5732 14.5422 36.7114 13.404 36.7114 12C36.7114 10.596 35.5732 9.45776 34.1692 9.45776C32.7651 9.45776 31.627 10.596 31.627 12C31.627 13.404 32.7651 14.5422 34.1692 14.5422Z" fill="#6500FF" fill-opacity="0.05"/>
<path d="M41.7956 14.5422C43.1997 14.5422 44.3379 13.404 44.3379 12C44.3379 10.596 43.1997 9.45776 41.7956 9.45776C40.3916 9.45776 39.2534 10.596 39.2534 12C39.2534 13.404 40.3916 14.5422 41.7956 14.5422Z" fill="#6500FF" fill-opacity="0.05"/>
<rect x="135.999" y="8" width="48" height="8" rx="4" fill="#6500FF" fill-opacity="0.05"/>
<path d="M295 12C295 12.0663 294.974 12.1299 294.927 12.1768C294.88 12.2237 294.816 12.25 294.75 12.25H289.25C289.184 12.25 289.12 12.2237 289.073 12.1768C289.026 12.1299 289 12.0663 289 12C289 11.9337 289.026 11.8701 289.073 11.8232C289.12 11.7763 289.184 11.75 289.25 11.75H294.75C294.816 11.75 294.88 11.7763 294.927 11.8232C294.974 11.8701 295 11.9337 295 12ZM289.25 10.25H294.75C294.816 10.25 294.88 10.2237 294.927 10.1768C294.974 10.1299 295 10.0663 295 10C295 9.9337 294.974 9.87011 294.927 9.82322C294.88 9.77634 294.816 9.75 294.75 9.75H289.25C289.184 9.75 289.12 9.77634 289.073 9.82322C289.026 9.87011 289 9.9337 289 10C289 10.0663 289.026 10.1299 289.073 10.1768C289.12 10.2237 289.184 10.25 289.25 10.25ZM294.75 13.75H289.25C289.184 13.75 289.12 13.7763 289.073 13.8232C289.026 13.8701 289 13.9337 289 14C289 14.0663 289.026 14.1299 289.073 14.1768C289.12 14.2237 289.184 14.25 289.25 14.25H294.75C294.816 14.25 294.88 14.2237 294.927 14.1768C294.974 14.1299 295 14.0663 295 14C295 13.9337 294.974 13.8701 294.927 13.8232C294.88 13.7763 294.816 13.75 294.75 13.75Z" fill="#6500FF" fill-opacity="0.1"/>
<path d="M155 76V45H-2" stroke="#6500FF" stroke-opacity="0.05" stroke-linecap="round"/>
<path d="M155 126V159H-2" stroke="#6500FF" stroke-opacity="0.05" stroke-linecap="round"/>
<path d="M166 76V45H319.258" stroke="#6500FF" stroke-opacity="0.05" stroke-linecap="round"/>
<path d="M166 126V158.5H319.728" stroke="#6500FF" stroke-opacity="0.05" stroke-linecap="round"/>
<path d="M165.75 94.1429H155.25C154.786 94.1429 154.341 94.3235 154.013 94.645C153.684 94.9665 153.5 95.4025 153.5 95.8571V106.143C153.5 106.598 153.684 107.034 154.013 107.355C154.341 107.677 154.786 107.857 155.25 107.857H165.75C166.214 107.857 166.659 107.677 166.987 107.355C167.316 107.034 167.5 106.598 167.5 106.143V95.8571C167.5 95.4025 167.316 94.9665 166.987 94.645C166.659 94.3235 166.214 94.1429 165.75 94.1429ZM164 104.429H157V97.5714H164V104.429ZM183.25 104.429H179.75V97.5714H183.25C183.714 97.5714 184.159 97.3908 184.487 97.0693C184.816 96.7478 185 96.3118 185 95.8571C185 95.4025 184.816 94.9665 184.487 94.645C184.159 94.3235 183.714 94.1429 183.25 94.1429H179.75V85.5714C179.75 84.6621 179.381 83.79 178.725 83.1471C178.068 82.5041 177.178 82.1429 176.25 82.1429H167.5V78.7143C167.5 78.2596 167.316 77.8236 166.987 77.5021C166.659 77.1806 166.214 77 165.75 77C165.286 77 164.841 77.1806 164.513 77.5021C164.184 77.8236 164 78.2596 164 78.7143V82.1429H157V78.7143C157 78.2596 156.816 77.8236 156.487 77.5021C156.159 77.1806 155.714 77 155.25 77C154.786 77 154.341 77.1806 154.013 77.5021C153.684 77.8236 153.5 78.2596 153.5 78.7143V82.1429H144.75C143.822 82.1429 142.932 82.5041 142.275 83.1471C141.619 83.79 141.25 84.6621 141.25 85.5714V94.1429H137.75C137.286 94.1429 136.841 94.3235 136.513 94.645C136.184 94.9665 136 95.4025 136 95.8571C136 96.3118 136.184 96.7478 136.513 97.0693C136.841 97.3908 137.286 97.5714 137.75 97.5714H141.25V104.429H137.75C137.286 104.429 136.841 104.609 136.513 104.931C136.184 105.252 136 105.688 136 106.143C136 106.598 136.184 107.034 136.513 107.355C136.841 107.677 137.286 107.857 137.75 107.857H141.25V116.429C141.25 117.338 141.619 118.21 142.275 118.853C142.932 119.496 143.822 119.857 144.75 119.857H153.5V123.286C153.5 123.74 153.684 124.176 154.013 124.498C154.341 124.819 154.786 125 155.25 125C155.714 125 156.159 124.819 156.487 124.498C156.816 124.176 157 123.74 157 123.286V119.857H164V123.286C164 123.74 164.184 124.176 164.513 124.498C164.841 124.819 165.286 125 165.75 125C166.214 125 166.659 124.819 166.987 124.498C167.316 124.176 167.5 123.74 167.5 123.286V119.857H176.25C177.178 119.857 178.068 119.496 178.725 118.853C179.381 118.21 179.75 117.338 179.75 116.429V107.857H183.25C183.714 107.857 184.159 107.677 184.487 107.355C184.816 107.034 185 106.598 185 106.143C185 105.688 184.816 105.252 184.487 104.931C184.159 104.609 183.714 104.429 183.25 104.429ZM176.25 116.429H144.75V85.5714H176.25V106.115C176.25 106.115 176.25 106.134 176.25 106.143C176.25 106.151 176.25 106.162 176.25 106.171V116.429Z" fill="#6500FF" fill-opacity="0.1"/>
<path d="M79.7185 91.4272H26.2812C25.2975 91.4272 24.5 92.2189 24.5 93.1954C24.5 94.172 25.2975 94.9636 26.2812 94.9636H79.7185C80.7022 94.9636 81.4997 94.172 81.4997 93.1954C81.4997 92.2189 80.7022 91.4272 79.7185 91.4272Z" fill="#6500FF" fill-opacity="0.05"/>
<path d="M32.9687 101.964H25.8437C24.86 101.964 24.0625 102.755 24.0625 103.732C24.0625 104.708 24.86 105.5 25.8437 105.5H32.9687C33.9525 105.5 34.7499 104.708 34.7499 103.732C34.7499 102.755 33.9525 101.964 32.9687 101.964Z" fill="#6500FF" fill-opacity="0.05"/>
<path d="M47.6562 101.964H40.5312C39.5475 101.964 38.75 102.755 38.75 103.732C38.75 104.708 39.5475 105.5 40.5312 105.5H47.6562C48.64 105.5 49.4374 104.708 49.4374 103.732C49.4374 102.755 48.64 101.964 47.6562 101.964Z" fill="#6500FF" fill-opacity="0.05"/>
<path d="M80.1561 101.964H55.2187C54.235 101.964 53.4375 102.755 53.4375 103.732C53.4375 104.708 54.235 105.5 55.2187 105.5H80.1561C81.1399 105.5 81.9374 104.708 81.9374 103.732C81.9374 102.755 81.1399 101.964 80.1561 101.964Z" fill="#6500FF" fill-opacity="0.05"/>
<path d="M65.2498 112.5H26.0625C25.0787 112.5 24.2812 113.292 24.2812 114.268C24.2812 115.245 25.0787 116.036 26.0625 116.036H65.2498C66.2335 116.036 67.031 115.245 67.031 114.268C67.031 113.292 66.2335 112.5 65.2498 112.5Z" fill="#6500FF" fill-opacity="0.05"/>
<path d="M79.9375 112.5H72.8125C71.8287 112.5 71.0312 113.292 71.0312 114.268C71.0312 115.245 71.8287 116.036 72.8125 116.036H79.9375C80.9212 116.036 81.7187 115.245 81.7187 114.268C81.7187 113.292 80.9212 112.5 79.9375 112.5Z" fill="#6500FF" fill-opacity="0.05"/>
<path d="M58.3437 123.036H47.6562C46.6725 123.036 45.875 123.828 45.875 124.805C45.875 125.781 46.6725 126.573 47.6562 126.573H58.3437C59.3274 126.573 60.1249 125.781 60.1249 124.805C60.1249 123.828 59.3274 123.036 58.3437 123.036Z" fill="#6500FF" fill-opacity="0.05"/>
<path d="M293.718 91.4272H240.281C239.297 91.4272 238.5 92.2189 238.5 93.1954C238.5 94.172 239.297 94.9636 240.281 94.9636H293.718C294.702 94.9636 295.5 94.172 295.5 93.1954C295.5 92.2189 294.702 91.4272 293.718 91.4272Z" fill="#6500FF" fill-opacity="0.05"/>
<path d="M246.969 101.964H239.844C238.86 101.964 238.062 102.755 238.062 103.732C238.062 104.708 238.86 105.5 239.844 105.5H246.969C247.952 105.5 248.75 104.708 248.75 103.732C248.75 102.755 247.952 101.964 246.969 101.964Z" fill="#6500FF" fill-opacity="0.05"/>
<path d="M261.656 101.964H254.531C253.547 101.964 252.75 102.755 252.75 103.732C252.75 104.708 253.547 105.5 254.531 105.5H261.656C262.64 105.5 263.437 104.708 263.437 103.732C263.437 102.755 262.64 101.964 261.656 101.964Z" fill="#6500FF" fill-opacity="0.05"/>
<path d="M294.156 101.964H269.219C268.235 101.964 267.438 102.755 267.438 103.732C267.438 104.708 268.235 105.5 269.219 105.5H294.156C295.14 105.5 295.937 104.708 295.937 103.732C295.937 102.755 295.14 101.964 294.156 101.964Z" fill="#6500FF" fill-opacity="0.05"/>
<path d="M279.25 112.5H240.062C239.079 112.5 238.281 113.292 238.281 114.268C238.281 115.245 239.079 116.036 240.062 116.036H279.25C280.234 116.036 281.031 115.245 281.031 114.268C281.031 113.292 280.234 112.5 279.25 112.5Z" fill="#6500FF" fill-opacity="0.05"/>
<path d="M293.937 112.5H286.812C285.829 112.5 285.031 113.292 285.031 114.268C285.031 115.245 285.829 116.036 286.812 116.036H293.937C294.921 116.036 295.719 115.245 295.719 114.268C295.719 113.292 294.921 112.5 293.937 112.5Z" fill="#6500FF" fill-opacity="0.05"/>
<path d="M272.344 123.036H261.656C260.672 123.036 259.875 123.828 259.875 124.805C259.875 125.781 260.672 126.573 261.656 126.573H272.344C273.327 126.573 274.125 125.781 274.125 124.805C274.125 123.828 273.327 123.036 272.344 123.036Z" fill="#6500FF" fill-opacity="0.05"/>
</g>
<rect x="0.5" y="0.5" width="319" height="179" rx="7.5" stroke="#6500FF" stroke-opacity="0.05"/>
<defs>
<clipPath id="clip0_231_492">
<rect width="320" height="180" rx="8" fill="white"/>
</clipPath>
</defs>
</svg>
