<svg width="320" height="180" viewBox="0 0 320 180" fill="none" xmlns="http://www.w3.org/2000/svg">
<g clip-path="url(#clip0_231_578)">
<rect width="320" height="180" rx="8" fill="white"/>
<mask id="path-3-inside-1_231_578" fill="white">
<path d="M0 0H320V32H0V0Z"/>
</mask>
<path d="M0 0H320V32H0V0Z" fill="white"/>
<path d="M320 32V31H0V32V33H320V32Z" fill="#6500FF" fill-opacity="0.05" mask="url(#path-3-inside-1_231_578)"/>
<path d="M26.2802 15.9999C26.2802 15.1733 26.4602 14.3866 26.7735 13.6666L29.5068 21.1466C28.539 20.6796 27.7226 19.9487 27.1518 19.0382C26.581 18.1277 26.2788 17.0746 26.2802 15.9999ZM35.8602 15.7133C35.8602 16.1999 35.6668 16.7666 35.4268 17.5599L34.8535 19.4666L32.7868 13.3333L33.4402 13.2666C33.7535 13.2266 33.7135 12.7733 33.4068 12.7933C33.4068 12.7933 32.4802 12.8666 31.8802 12.8666L30.3735 12.7933C30.0668 12.7733 30.0335 13.2466 30.3335 13.2666L30.9402 13.3333L31.8335 15.7599L30.5802 19.5133L28.4935 13.3333L29.1535 13.2666C29.4602 13.2266 29.4202 12.7733 29.1135 12.7933C29.1135 12.7933 28.1868 12.8666 27.5868 12.8666L27.2202 12.8599C28.2468 11.3066 30.0002 10.2799 32.0002 10.2799C33.4868 10.2799 34.8468 10.8533 35.8602 11.7799H35.7868C35.2268 11.7799 34.8268 12.2666 34.8268 12.7933C34.8268 13.2666 35.1002 13.6666 35.3868 14.1333C35.6068 14.5133 35.8602 14.9999 35.8602 15.7133ZM32.1002 16.4999L33.8602 21.3133L33.9002 21.3933C33.3068 21.6066 32.6668 21.7199 32.0002 21.7199C31.4402 21.7199 30.9002 21.6399 30.3868 21.4866L32.1002 16.4999ZM37.0202 13.2533C37.481 14.0953 37.7218 15.04 37.7202 15.9999C37.7202 18.1066 36.5735 19.9533 34.8735 20.9399L36.6202 15.8933C36.9468 15.0799 37.0602 14.4266 37.0602 13.8466L37.0202 13.2533ZM32.0002 9.33325C32.8756 9.33325 33.7425 9.50569 34.5514 9.84072C35.3602 10.1758 36.0952 10.6668 36.7142 11.2859C37.3333 11.9049 37.8243 12.6399 38.1594 13.4487C38.4944 14.2575 38.6668 15.1244 38.6668 15.9999C38.6668 17.768 37.9644 19.4637 36.7142 20.714C35.464 21.9642 33.7683 22.6666 32.0002 22.6666C31.1247 22.6666 30.2578 22.4941 29.4489 22.1591C28.6401 21.8241 27.9052 21.333 27.2861 20.714C26.0359 19.4637 25.3335 17.768 25.3335 15.9999C25.3335 14.2318 26.0359 12.5361 27.2861 11.2859C28.5364 10.0356 30.2321 9.33325 32.0002 9.33325ZM32.0002 22.3599C35.5068 22.3599 38.3602 19.5066 38.3602 15.9999C38.3602 12.4933 35.5068 9.63992 32.0002 9.63992C28.4935 9.63992 25.6402 12.4933 25.6402 15.9999C25.6402 19.5066 28.4935 22.3599 32.0002 22.3599Z" fill="#6500FF" fill-opacity="0.5"/>
<path d="M278.204 18.5422C279.608 18.5422 280.747 17.404 280.747 16C280.747 14.596 279.608 13.4578 278.204 13.4578C276.8 13.4578 275.662 14.596 275.662 16C275.662 17.404 276.8 18.5422 278.204 18.5422Z" fill="#6500FF" fill-opacity="0.05"/>
<path d="M285.831 18.5422C287.235 18.5422 288.374 17.404 288.374 16C288.374 14.596 287.235 13.4578 285.831 13.4578C284.427 13.4578 283.289 14.596 283.289 16C283.289 17.404 284.427 18.5422 285.831 18.5422Z" fill="#6500FF" fill-opacity="0.05"/>
<path d="M293.458 18.5422C294.862 18.5422 296 17.404 296 16C296 14.596 294.862 13.4578 293.458 13.4578C292.054 13.4578 290.916 14.596 290.916 16C290.916 17.404 292.054 18.5422 293.458 18.5422Z" fill="#6500FF" fill-opacity="0.05"/>
<path d="M112 46.8333H79C78.2044 46.8333 77.4413 47.1493 76.8787 47.7119C76.3161 48.2745 76 49.0376 76 49.8333V76.8333C76 77.6289 76.3161 78.392 76.8787 78.9546C77.4413 79.5172 78.2044 79.8333 79 79.8333H112C112.796 79.8333 113.559 79.5172 114.121 78.9546C114.684 78.392 115 77.6289 115 76.8333V49.8333C115 49.0376 114.684 48.2745 114.121 47.7119C113.559 47.1493 112.796 46.8333 112 46.8333ZM112 49.8333V69.0989L107.112 64.2126C106.833 63.934 106.503 63.7129 106.139 63.5621C105.775 63.4113 105.384 63.3337 104.99 63.3337C104.596 63.3337 104.206 63.4113 103.842 63.5621C103.478 63.7129 103.147 63.934 102.869 64.2126L99.1188 67.9626L90.8688 59.7126C90.3062 59.1504 89.5434 58.8346 88.7481 58.8346C87.9528 58.8346 87.1901 59.1504 86.6275 59.7126L79 67.3401V49.8333H112ZM79 71.5833L88.75 61.8333L103.75 76.8333H79V71.5833ZM112 76.8333H107.993L101.243 70.0833L104.993 66.3333L112 73.342V76.8333ZM98.5 58.0833C98.5 57.6382 98.632 57.2032 98.8792 56.8332C99.1264 56.4632 99.4778 56.1748 99.889 56.0045C100.3 55.8342 100.752 55.7897 101.189 55.8765C101.625 55.9633 102.026 56.1776 102.341 56.4923C102.656 56.8069 102.87 57.2078 102.957 57.6443C103.044 58.0808 102.999 58.5332 102.829 58.9443C102.658 59.3554 102.37 59.7068 102 59.9541C101.63 60.2013 101.195 60.3333 100.75 60.3333C100.153 60.3333 99.581 60.0962 99.159 59.6742C98.7371 59.2523 98.5 58.68 98.5 58.0833Z" fill="#6500FF" fill-opacity="0.05"/>
<path d="M132.438 95.3333H58.5626C57.2026 95.3333 56.1001 96.4277 56.1001 97.7777C56.1001 99.1277 57.2026 100.222 58.5626 100.222H132.438C133.798 100.222 134.9 99.1277 134.9 97.7777C134.9 96.4277 133.798 95.3333 132.438 95.3333Z" fill="#6500FF" fill-opacity="0.05"/>
<path d="M68.3374 110.222H58.4874C57.1274 110.222 56.0249 111.317 56.0249 112.667C56.0249 114.017 57.1274 115.111 58.4874 115.111H68.3374C69.6974 115.111 70.7999 114.017 70.7999 112.667C70.7999 111.317 69.6974 110.222 68.3374 110.222Z" fill="#6500FF" fill-opacity="0.05"/>
<path d="M88.1128 110.222H78.2628C76.9028 110.222 75.8003 111.317 75.8003 112.667C75.8003 114.017 76.9028 115.111 78.2628 115.111H88.1128C89.4728 115.111 90.5753 114.017 90.5753 112.667C90.5753 111.317 89.4728 110.222 88.1128 110.222Z" fill="#6500FF" fill-opacity="0.05"/>
<path d="M132.512 110.222H98.0367C96.6767 110.222 95.5742 111.317 95.5742 112.667C95.5742 114.017 96.6767 115.111 98.0367 115.111H132.512C133.872 115.111 134.974 114.017 134.974 112.667C134.974 111.317 133.872 110.222 132.512 110.222Z" fill="#6500FF" fill-opacity="0.05"/>
<path d="M112.7 125.111H58.525C57.165 125.111 56.0625 126.205 56.0625 127.556C56.0625 128.906 57.165 130 58.525 130H112.7C114.06 130 115.162 128.906 115.162 127.556C115.162 126.205 114.06 125.111 112.7 125.111Z" fill="#6500FF" fill-opacity="0.05"/>
<path d="M132.475 125.111H122.625C121.265 125.111 120.162 126.205 120.162 127.556C120.162 128.906 121.265 130 122.625 130H132.475C133.835 130 134.937 128.906 134.937 127.556C134.937 126.205 133.835 125.111 132.475 125.111Z" fill="#6500FF" fill-opacity="0.05"/>
<path d="M58.5629 172.667H132.438C133.798 172.667 134.9 171.572 134.9 170.222C134.9 168.872 133.798 167.778 132.438 167.778H58.5629C57.2029 167.778 56.1004 168.872 56.1004 170.222C56.1004 171.572 57.2029 172.667 58.5629 172.667Z" fill="#6500FF" fill-opacity="0.05"/>
<path d="M122.662 157.778H132.512C133.872 157.778 134.975 156.683 134.975 155.333C134.975 153.983 133.872 152.889 132.512 152.889H122.662C121.302 152.889 120.2 153.983 120.2 155.333C120.2 156.683 121.302 157.778 122.662 157.778Z" fill="#6500FF" fill-opacity="0.05"/>
<path d="M102.887 157.778H112.737C114.097 157.778 115.199 156.683 115.199 155.333C115.199 153.983 114.097 152.889 112.737 152.889H102.887C101.527 152.889 100.424 153.983 100.424 155.333C100.424 156.683 101.527 157.778 102.887 157.778Z" fill="#6500FF" fill-opacity="0.05"/>
<path d="M58.4873 157.778H92.9623C94.3223 157.778 95.4248 156.683 95.4248 155.333C95.4248 153.983 94.3223 152.889 92.9623 152.889H58.4873C57.1273 152.889 56.0248 153.983 56.0248 155.333C56.0248 156.683 57.1273 157.778 58.4873 157.778Z" fill="#6500FF" fill-opacity="0.05"/>
<path d="M78.3 142.889H132.475C133.835 142.889 134.938 141.795 134.938 140.444C134.938 139.094 133.835 138 132.475 138H78.3C76.94 138 75.8375 139.094 75.8375 140.444C75.8375 141.795 76.94 142.889 78.3 142.889Z" fill="#6500FF" fill-opacity="0.05"/>
<path d="M58.5254 142.889H68.3754C69.7354 142.889 70.8379 141.795 70.8379 140.444C70.8379 139.094 69.7354 138 68.3754 138H58.5254C57.1654 138 56.0629 139.094 56.0629 140.444C56.0629 141.795 57.1654 142.889 58.5254 142.889Z" fill="#6500FF" fill-opacity="0.05"/>
<mask id="path-22-inside-2_231_578" fill="white">
<path d="M191 32H320V181H191V32Z"/>
</mask>
<path d="M191 181H192V32H191H190V181H191Z" fill="#6500FF" fill-opacity="0.05" mask="url(#path-22-inside-2_231_578)"/>
<path d="M266.167 42.5H244.833C241.888 42.5 239.5 44.2909 239.5 46.5C239.5 48.7091 241.888 50.5 244.833 50.5H266.167C269.112 50.5 271.5 48.7091 271.5 46.5C271.5 44.2909 269.112 42.5 266.167 42.5Z" fill="#6500FF" fill-opacity="0.05"/>
<path d="M266.167 66.5H244.833C241.888 66.5 239.5 68.2909 239.5 70.5C239.5 72.7091 241.888 74.5 244.833 74.5H266.167C269.112 74.5 271.5 72.7091 271.5 70.5C271.5 68.2909 269.112 66.5 266.167 66.5Z" fill="#6500FF" fill-opacity="0.05"/>
<path d="M266.167 90.5H244.833C241.888 90.5 239.5 92.2909 239.5 94.5C239.5 96.7091 241.888 98.5 244.833 98.5H266.167C269.112 98.5 271.5 96.7091 271.5 94.5C271.5 92.2909 269.112 90.5 266.167 90.5Z" fill="#6500FF" fill-opacity="0.05"/>
<path d="M266.167 114.5H244.833C241.888 114.5 239.5 116.291 239.5 118.5C239.5 120.709 241.888 122.5 244.833 122.5H266.167C269.112 122.5 271.5 120.709 271.5 118.5C271.5 116.291 269.112 114.5 266.167 114.5Z" fill="#6500FF" fill-opacity="0.05"/>
<path d="M266.167 138.5H244.833C241.888 138.5 239.5 140.291 239.5 142.5C239.5 144.709 241.888 146.5 244.833 146.5H266.167C269.112 146.5 271.5 144.709 271.5 142.5C271.5 140.291 269.112 138.5 266.167 138.5Z" fill="#6500FF" fill-opacity="0.05"/>
<path d="M266.167 162.5H244.833C241.888 162.5 239.5 164.291 239.5 166.5C239.5 168.709 241.888 170.5 244.833 170.5H266.167C269.112 170.5 271.5 168.709 271.5 166.5C271.5 164.291 269.112 162.5 266.167 162.5Z" fill="#6500FF" fill-opacity="0.05"/>
</g>
<rect x="0.5" y="0.5" width="319" height="179" rx="7.5" stroke="#6500FF" stroke-opacity="0.05"/>
<defs>
<clipPath id="clip0_231_578">
<rect width="320" height="180" rx="8" fill="white"/>
</clipPath>
</defs>
</svg>
