<svg width="320" height="180" viewBox="0 0 320 180" fill="none" xmlns="http://www.w3.org/2000/svg">
<mask id="mask0_232_724" style="mask-type:luminance" maskUnits="userSpaceOnUse" x="0" y="0" width="320" height="180">
<path d="M312 0H8C3.58172 0 0 3.58172 0 8V172C0 176.418 3.58172 180 8 180H312C316.418 180 320 176.418 320 172V8C320 3.58172 316.418 0 312 0Z" fill="white"/>
</mask>
<g mask="url(#mask0_232_724)">
<path d="M312 0H8C3.58172 0 0 3.58172 0 8V172C0 176.418 3.58172 180 8 180H312C316.418 180 320 176.418 320 172V8C320 3.58172 316.418 0 312 0Z" fill="url(#paint0_linear_232_724)"/>
<mask id="mask1_232_724" style="mask-type:luminance" maskUnits="userSpaceOnUse" x="0" y="0" width="321" height="24">
<path d="M0.28418 0H320.284V24H0.28418V0Z" fill="white"/>
</mask>
<g mask="url(#mask1_232_724)">
<path d="M319.716 23.0697V22.7849H0.852539V23.0697V23.3545H319.716V23.0697Z" fill="#6500FF" fill-opacity="0.05"/>
</g>
<path d="M84 8H28C25.7909 8 24 9.79086 24 12C24 14.2091 25.7909 16 28 16H84C86.2091 16 88 14.2091 88 12C88 9.79086 86.2091 8 84 8Z" fill="#6500FF" fill-opacity="0.05"/>
<path d="M175.66 8H163.66C161.451 8 159.66 9.79086 159.66 12C159.66 14.2091 161.451 16 163.66 16H175.66C177.869 16 179.66 14.2091 179.66 12C179.66 9.79086 177.869 8 175.66 8Z" fill="#6500FF" fill-opacity="0.05"/>
<path d="M201.74 8H189.74C187.531 8 185.74 9.79086 185.74 12C185.74 14.2091 187.531 16 189.74 16H201.74C203.949 16 205.74 14.2091 205.74 12C205.74 9.79086 203.949 8 201.74 8Z" fill="#6500FF" fill-opacity="0.05"/>
<path d="M227.82 8H215.82C213.611 8 211.82 9.79086 211.82 12C211.82 14.2091 213.611 16 215.82 16H227.82C230.029 16 231.82 14.2091 231.82 12C231.82 9.79086 230.029 8 227.82 8Z" fill="#6500FF" fill-opacity="0.05"/>
<path d="M253.9 8H241.9C239.691 8 237.9 9.79086 237.9 12C237.9 14.2091 239.691 16 241.9 16H253.9C256.11 16 257.9 14.2091 257.9 12C257.9 9.79086 256.11 8 253.9 8Z" fill="#6500FF" fill-opacity="0.05"/>
<mask id="mask2_232_724" style="mask-type:luminance" maskUnits="userSpaceOnUse" x="263" y="8" width="9" height="8">
<path d="M271.66 8H263.98V16H271.66V8Z" fill="white"/>
</mask>
<g mask="url(#mask2_232_724)">
<path fill-rule="evenodd" clip-rule="evenodd" d="M267.58 8.87988C265.946 8.87988 264.62 10.2047 264.62 11.8392C264.62 13.4738 265.946 14.7986 267.58 14.7986C268.282 14.8001 268.962 14.5506 269.496 14.0952L270.61 15.2088C270.632 15.2324 270.658 15.2513 270.688 15.2645C270.717 15.2776 270.749 15.2846 270.781 15.2852C270.813 15.2858 270.845 15.2798 270.875 15.2678C270.905 15.2557 270.932 15.2377 270.955 15.2149C270.978 15.1921 270.996 15.165 271.008 15.1351C271.02 15.1052 271.026 15.0732 271.025 15.041C271.025 15.0088 271.018 14.977 271.005 14.9476C270.992 14.9181 270.973 14.8916 270.949 14.8696L269.835 13.756C270.292 13.2217 270.541 12.5418 270.54 11.8392C270.54 10.2047 269.215 8.87988 267.58 8.87988ZM265.1 11.8392C265.1 11.1816 265.362 10.551 265.827 10.086C266.292 9.62108 266.922 9.35988 267.58 9.35988C267.909 9.3546 268.236 9.41482 268.541 9.53705C268.847 9.65928 269.125 9.84106 269.359 10.0718C269.594 10.3026 269.78 10.5777 269.907 10.8811C270.034 11.1846 270.1 11.5103 270.1 11.8392C270.1 12.1682 270.034 12.4939 269.907 12.7974C269.78 13.1008 269.594 13.3759 269.359 13.6067C269.125 13.8374 268.847 14.0192 268.541 14.1414C268.236 14.2637 267.909 14.3239 267.58 14.3186C266.922 14.3186 266.292 14.0574 265.827 13.5925C265.362 13.1275 265.1 12.4969 265.1 11.8392Z" fill="#6500FF" fill-opacity="0.5"/>
</g>
<path fill-rule="evenodd" clip-rule="evenodd" d="M276.183 9.33325C276.183 9.26695 276.209 9.20336 276.256 9.15648C276.303 9.10959 276.366 9.08325 276.433 9.08325H276.826C277.007 9.08326 277.182 9.14861 277.318 9.26725C277.455 9.38589 277.544 9.54985 277.569 9.72892L277.589 9.87392H282.244C282.369 9.87392 282.491 9.9049 282.601 9.96407C282.71 10.0232 282.803 10.1087 282.872 10.2128C282.94 10.3169 282.981 10.4364 282.992 10.5604C283.002 10.6844 282.982 10.8091 282.932 10.9233L282.043 12.9659C281.984 13.0998 281.888 13.2138 281.766 13.2939C281.644 13.3739 281.501 13.4166 281.355 13.4166H278.235C278.054 13.4166 277.879 13.3512 277.743 13.2326C277.606 13.1139 277.517 12.95 277.492 12.7709L277.074 9.79859C277.066 9.73886 277.036 9.68416 276.99 9.64459C276.945 9.60502 276.887 9.58323 276.826 9.58325H276.433C276.367 9.58325 276.303 9.55691 276.256 9.51003C276.209 9.46314 276.183 9.39956 276.183 9.33325ZM277.66 10.3739L277.987 12.7013C277.996 12.761 278.025 12.8157 278.071 12.8552C278.116 12.8948 278.175 12.9166 278.235 12.9166H281.355C281.404 12.9166 281.452 12.9025 281.492 12.8758C281.533 12.8492 281.565 12.8112 281.585 12.7666L282.474 10.7233C282.49 10.6852 282.497 10.6438 282.493 10.6025C282.49 10.5612 282.476 10.5215 282.453 10.4869C282.431 10.4522 282.4 10.4238 282.363 10.4041C282.327 10.3843 282.286 10.374 282.245 10.3739H277.66Z" fill="#6500FF" fill-opacity="0.5"/>
<path d="M277.672 14.5001C277.672 14.3454 277.733 14.197 277.843 14.0876C277.952 13.9782 278.1 13.9167 278.255 13.9167C278.41 13.9167 278.558 13.9782 278.668 14.0876C278.777 14.197 278.839 14.3454 278.839 14.5001C278.839 14.6548 278.777 14.8032 278.668 14.9126C278.558 15.022 278.41 15.0834 278.255 15.0834C278.1 15.0834 277.952 15.022 277.843 14.9126C277.733 14.8032 277.672 14.6548 277.672 14.5001ZM281.101 13.9167C280.946 13.9167 280.797 13.9782 280.688 14.0876C280.579 14.197 280.517 14.3454 280.517 14.5001C280.517 14.6548 280.579 14.8032 280.688 14.9126C280.797 15.022 280.946 15.0834 281.101 15.0834C281.255 15.0834 281.404 15.022 281.513 14.9126C281.622 14.8032 281.684 14.6548 281.684 14.5001C281.684 14.3454 281.622 14.197 281.513 14.0876C281.404 13.9782 281.255 13.9167 281.101 13.9167Z" fill="#6500FF" fill-opacity="0.5"/>
<path fill-rule="evenodd" clip-rule="evenodd" d="M293.142 10.1167C293.142 10.9134 292.495 11.5634 291.695 11.5634L291.692 11.5601C290.895 11.5601 290.245 10.9101 290.245 10.1134C290.245 9.31675 290.898 8.66675 291.695 8.66675C292.492 8.66675 293.142 9.32008 293.142 10.1167ZM292.642 10.1134C292.642 9.59341 292.218 9.16675 291.695 9.16675C291.175 9.16675 290.748 9.59341 290.748 10.1134C290.748 10.6334 291.175 11.0601 291.695 11.0601C291.946 11.0592 292.186 10.9592 292.364 10.7818C292.541 10.6045 292.641 10.3642 292.642 10.1134Z" fill="#6500FF" fill-opacity="0.5"/>
<path d="M291.672 12.0632C292.562 12.0632 293.259 12.3132 293.742 12.8066V12.8032C294.424 13.4986 294.422 14.4186 294.422 14.4779V14.4796C294.419 14.6162 294.309 14.7262 294.172 14.7262H294.169C294.102 14.7249 294.039 14.6976 293.993 14.6502C293.947 14.6028 293.921 14.5391 293.922 14.4729C293.922 14.4562 293.922 13.6962 293.382 13.1496C292.995 12.7596 292.419 12.5596 291.672 12.5596C290.925 12.5596 290.349 12.7596 289.962 13.1496C289.422 13.6996 289.422 14.4662 289.422 14.4729C289.422 14.6096 289.312 14.7262 289.175 14.7262C289.055 14.7329 288.922 14.6196 288.922 14.4829V14.4816C288.922 14.4256 288.919 13.5019 289.602 12.8062C290.085 12.3129 290.782 12.0632 291.672 12.0632Z" fill="#6500FF" fill-opacity="0.5"/>
<path d="M220 66H100C97.7909 66 96 67.7909 96 70C96 72.2091 97.7909 74 100 74H220C222.209 74 224 72.2091 224 70C224 67.7909 222.209 66 220 66Z" fill="#6500FF" fill-opacity="0.05"/>
<path d="M116 90H100C97.7909 90 96 91.7909 96 94C96 96.2091 97.7909 98 100 98H116C118.209 98 120 96.2091 120 94C120 91.7909 118.209 90 116 90Z" fill="#6500FF" fill-opacity="0.05"/>
<path d="M148 90H132C129.791 90 128 91.7909 128 94C128 96.2091 129.791 98 132 98H148C150.209 98 152 96.2091 152 94C152 91.7909 150.209 90 148 90Z" fill="#6500FF" fill-opacity="0.05"/>
<path d="M220 90H164C161.791 90 160 91.7909 160 94C160 96.2091 161.791 98 164 98H220C222.209 98 224 96.2091 224 94C224 91.7909 222.209 90 220 90Z" fill="#6500FF" fill-opacity="0.05"/>
<path d="M188 106H100C97.7909 106 96 107.791 96 110C96 112.209 97.7909 114 100 114H188C190.209 114 192 112.209 192 110C192 107.791 190.209 106 188 106Z" fill="#6500FF" fill-opacity="0.05"/>
<path d="M220 106H204C201.791 106 200 107.791 200 110C200 112.209 201.791 114 204 114H220C222.209 114 224 112.209 224 110C224 107.791 222.209 106 220 106Z" fill="#6500FF" fill-opacity="0.05"/>
<path d="M172 130H148C145.791 130 144 131.791 144 134C144 136.209 145.791 138 148 138H172C174.209 138 176 136.209 176 134C176 131.791 174.209 130 172 130Z" fill="#6500FF" fill-opacity="0.05"/>
</g>
<path d="M312 0.5H8C3.85786 0.5 0.5 3.85786 0.5 8V172C0.5 176.142 3.85786 179.5 8 179.5H312C316.142 179.5 319.5 176.142 319.5 172V8C319.5 3.85786 316.142 0.5 312 0.5Z" stroke="#6500FF" stroke-opacity="0.05"/>
<defs>
<linearGradient id="paint0_linear_232_724" x1="160" y1="0" x2="160" y2="180" gradientUnits="userSpaceOnUse">
<stop stop-color="white"/>
<stop offset="1" stop-color="white"/>
</linearGradient>
</defs>
</svg>
