<svg width="320" height="180" viewBox="0 0 320 180" fill="none" xmlns="http://www.w3.org/2000/svg">
<g clip-path="url(#clip0_231_173)">
<rect width="320" height="180" rx="8" fill="white"/>
<mask id="path-3-inside-1_231_173" fill="white">
<path d="M0 23H80V181H0V23Z"/>
</mask>
<path d="M80 23H79V181H80H81V23H80Z" fill="#6500FF" fill-opacity="0.05" mask="url(#path-3-inside-1_231_173)"/>
<path d="M50.6667 38H29.3333C26.3878 38 24 39.7909 24 42C24 44.2091 26.3878 46 29.3333 46H50.6667C53.6122 46 56 44.2091 56 42C56 39.7909 53.6122 38 50.6667 38Z" fill="#6500FF" fill-opacity="0.05"/>
<path d="M50.6667 62H29.3333C26.3878 62 24 63.7909 24 66C24 68.2091 26.3878 70 29.3333 70H50.6667C53.6122 70 56 68.2091 56 66C56 63.7909 53.6122 62 50.6667 62Z" fill="#6500FF" fill-opacity="0.05"/>
<path d="M50.6667 86H29.3333C26.3878 86 24 87.7909 24 90C24 92.2091 26.3878 94 29.3333 94H50.6667C53.6122 94 56 92.2091 56 90C56 87.7909 53.6122 86 50.6667 86Z" fill="#6500FF" fill-opacity="0.05"/>
<path d="M50.6667 110H29.3333C26.3878 110 24 111.791 24 114C24 116.209 26.3878 118 29.3333 118H50.6667C53.6122 118 56 116.209 56 114C56 111.791 53.6122 110 50.6667 110Z" fill="#6500FF" fill-opacity="0.05"/>
<path d="M50.6667 134H29.3333C26.3878 134 24 135.791 24 138C24 140.209 26.3878 142 29.3333 142H50.6667C53.6122 142 56 140.209 56 138C56 135.791 53.6122 134 50.6667 134Z" fill="#6500FF" fill-opacity="0.05"/>
<path d="M50.6667 158H29.3333C26.3878 158 24 159.791 24 162C24 164.209 26.3878 166 29.3333 166H50.6667C53.6122 166 56 164.209 56 162C56 159.791 53.6122 158 50.6667 158Z" fill="#6500FF" fill-opacity="0.05"/>
<mask id="mask0_231_173" style="mask-type:luminance" maskUnits="userSpaceOnUse" x="101" y="45" width="197" height="110">
<path d="M293.075 45H105.925C103.205 45 101 47.1888 101 49.8889V150.111C101 152.811 103.205 155 105.925 155H293.075C295.795 155 298 152.811 298 150.111V49.8889C298 47.1888 295.795 45 293.075 45Z" fill="white"/>
</mask>
<g mask="url(#mask0_231_173)">
<path d="M293.075 45H105.925C103.205 45 101 47.1888 101 49.8889V150.111C101 152.811 103.205 155 105.925 155H293.075C295.795 155 298 152.811 298 150.111V49.8889C298 47.1888 295.795 45 293.075 45Z" fill="url(#paint0_linear_231_173)"/>
<path d="M236.337 78H162.462C161.102 78 160 79.0944 160 80.4444C160 81.7945 161.102 82.8889 162.462 82.8889H236.337C237.697 82.8889 238.8 81.7945 238.8 80.4444C238.8 79.0944 237.697 78 236.337 78Z" fill="#6500FF" fill-opacity="0.05"/>
<path d="M172.312 92.6667H162.462C161.102 92.6667 160 93.7612 160 95.1112C160 96.4612 161.102 97.5556 162.462 97.5556H172.312C173.673 97.5556 174.775 96.4612 174.775 95.1112C174.775 93.7612 173.673 92.6667 172.312 92.6667Z" fill="#6500FF" fill-opacity="0.05"/>
<path d="M192.013 92.6667H182.163C180.803 92.6667 179.7 93.7612 179.7 95.1112C179.7 96.4612 180.803 97.5556 182.163 97.5556H192.013C193.373 97.5556 194.475 96.4612 194.475 95.1112C194.475 93.7612 193.373 92.6667 192.013 92.6667Z" fill="#6500FF" fill-opacity="0.05"/>
<path d="M236.338 92.6667H201.863C200.503 92.6667 199.4 93.7612 199.4 95.1112C199.4 96.4612 200.503 97.5556 201.863 97.5556H236.338C237.698 97.5556 238.8 96.4612 238.8 95.1112C238.8 93.7612 237.698 92.6667 236.338 92.6667Z" fill="#6500FF" fill-opacity="0.05"/>
<path d="M216.637 102.445H162.462C161.102 102.445 160 103.539 160 104.889C160 106.239 161.102 107.333 162.462 107.333H216.637C217.997 107.333 219.1 106.239 219.1 104.889C219.1 103.539 217.997 102.445 216.637 102.445Z" fill="#6500FF" fill-opacity="0.05"/>
<path d="M236.338 102.445H226.488C225.128 102.445 224.025 103.539 224.025 104.889C224.025 106.239 225.128 107.333 226.488 107.333H236.338C237.698 107.333 238.8 106.239 238.8 104.889C238.8 103.539 237.698 102.445 236.338 102.445Z" fill="#6500FF" fill-opacity="0.05"/>
<path d="M206.788 117.111H192.013C190.653 117.111 189.551 118.205 189.551 119.556C189.551 120.906 190.653 122 192.013 122H206.788C208.148 122 209.251 120.906 209.251 119.556C209.251 118.205 208.148 117.111 206.788 117.111Z" fill="#6500FF" fill-opacity="0.05"/>
</g>
<path d="M293.075 45.3057H105.925C103.375 45.3057 101.308 47.3577 101.308 49.889V150.111C101.308 152.643 103.375 154.695 105.925 154.695H293.075C295.625 154.695 297.692 152.643 297.692 150.111V49.889C297.692 47.3577 295.625 45.3057 293.075 45.3057Z" stroke="#6500FF" stroke-opacity="0.05"/>
<mask id="path-21-inside-2_231_173" fill="white">
<path d="M0 0H320V24H0V0Z"/>
</mask>
<path d="M0 0H320V24H0V0Z" fill="white"/>
<path d="M320 24V23H0V24V25H320V24Z" fill="#6500FF" fill-opacity="0.05" mask="url(#path-21-inside-2_231_173)"/>
<path d="M26.5422 14.5422C27.9463 14.5422 29.0844 13.404 29.0844 12C29.0844 10.596 27.9463 9.45776 26.5422 9.45776C25.1382 9.45776 24 10.596 24 12C24 13.404 25.1382 14.5422 26.5422 14.5422Z" fill="#6500FF" fill-opacity="0.05"/>
<path d="M34.1692 14.5422C35.5732 14.5422 36.7114 13.404 36.7114 12C36.7114 10.596 35.5732 9.45776 34.1692 9.45776C32.7651 9.45776 31.627 10.596 31.627 12C31.627 13.404 32.7651 14.5422 34.1692 14.5422Z" fill="#6500FF" fill-opacity="0.05"/>
<path d="M41.7956 14.5422C43.1997 14.5422 44.3379 13.404 44.3379 12C44.3379 10.596 43.1997 9.45776 41.7956 9.45776C40.3916 9.45776 39.2534 10.596 39.2534 12C39.2534 13.404 40.3916 14.5422 41.7956 14.5422Z" fill="#6500FF" fill-opacity="0.05"/>
<g clip-path="url(#clip1_231_173)">
<path d="M140.992 9.92683C140.969 9.90361 140.951 9.87604 140.938 9.84569C140.925 9.81534 140.919 9.78281 140.919 9.74995C140.919 9.7171 140.925 9.68457 140.938 9.65422C140.951 9.62387 140.969 9.5963 140.992 9.57308L141.992 8.57308C142.015 8.54983 142.043 8.53139 142.073 8.51881C142.104 8.50623 142.136 8.49976 142.169 8.49976C142.202 8.49976 142.235 8.50623 142.265 8.51881C142.295 8.53139 142.323 8.54983 142.346 8.57308L143.346 9.57308C143.393 9.61999 143.419 9.68361 143.419 9.74995C143.419 9.81629 143.393 9.87992 143.346 9.92683C143.299 9.97374 143.235 10.0001 143.169 10.0001C143.103 10.0001 143.039 9.97374 142.992 9.92683L142.419 9.35339V11C142.419 11.0663 142.393 11.1298 142.346 11.1767C142.299 11.2236 142.235 11.25 142.169 11.25C142.103 11.25 142.039 11.2236 141.992 11.1767C141.945 11.1298 141.919 11.0663 141.919 11V9.35339L141.346 9.92683C141.323 9.95007 141.295 9.96851 141.265 9.98109C141.235 9.99367 141.202 10.0001 141.169 10.0001C141.136 10.0001 141.104 9.99367 141.073 9.98109C141.043 9.96851 141.015 9.95007 140.992 9.92683ZM142.992 14.0731L142.419 14.6465V13C142.419 12.9336 142.393 12.8701 142.346 12.8232C142.299 12.7763 142.235 12.75 142.169 12.75C142.103 12.75 142.039 12.7763 141.992 12.8232C141.945 12.8701 141.919 12.9336 141.919 13V14.6465L141.346 14.0731C141.299 14.0262 141.235 13.9998 141.169 13.9998C141.103 13.9998 141.039 14.0262 140.992 14.0731C140.945 14.12 140.919 14.1836 140.919 14.25C140.919 14.3163 140.945 14.3799 140.992 14.4268L141.992 15.4268C142.015 15.4501 142.043 15.4685 142.073 15.4811C142.104 15.4937 142.136 15.5001 142.169 15.5001C142.202 15.5001 142.235 15.4937 142.265 15.4811C142.295 15.4685 142.323 15.4501 142.346 15.4268L143.346 14.4268C143.393 14.3799 143.419 14.3163 143.419 14.25C143.419 14.1836 143.393 14.12 143.346 14.0731C143.299 14.0262 143.235 13.9998 143.169 13.9998C143.103 13.9998 143.039 14.0262 142.992 14.0731ZM145.596 11.8231L144.596 10.8231C144.549 10.7762 144.485 10.7498 144.419 10.7498C144.353 10.7498 144.289 10.7762 144.242 10.8231C144.195 10.87 144.169 10.9336 144.169 11C144.169 11.0663 144.195 11.1299 144.242 11.1768L144.816 11.75H143.169C143.103 11.75 143.039 11.7763 142.992 11.8232C142.945 11.8701 142.919 11.9336 142.919 12C142.919 12.0663 142.945 12.1298 142.992 12.1767C143.039 12.2236 143.103 12.25 143.169 12.25H144.816L144.242 12.8231C144.195 12.87 144.169 12.9336 144.169 13C144.169 13.0663 144.195 13.1299 144.242 13.1768C144.289 13.2237 144.353 13.2501 144.419 13.2501C144.485 13.2501 144.549 13.2237 144.596 13.1768L145.596 12.1768C145.619 12.1536 145.638 12.126 145.65 12.0957C145.663 12.0653 145.669 12.0328 145.669 12C145.669 11.9671 145.663 11.9346 145.65 11.9042C145.638 11.8739 145.619 11.8463 145.596 11.8231ZM139.523 12.25H141.169C141.235 12.25 141.299 12.2236 141.346 12.1767C141.393 12.1298 141.419 12.0663 141.419 12C141.419 11.9336 141.393 11.8701 141.346 11.8232C141.299 11.7763 141.235 11.75 141.169 11.75H139.523L140.096 11.1768C140.143 11.1299 140.169 11.0663 140.169 11C140.169 10.9336 140.143 10.87 140.096 10.8231C140.049 10.7762 139.985 10.7498 139.919 10.7498C139.853 10.7498 139.789 10.7762 139.742 10.8231L138.742 11.8231C138.719 11.8463 138.701 11.8739 138.688 11.9042C138.675 11.9346 138.669 11.9671 138.669 12C138.669 12.0328 138.675 12.0653 138.688 12.0957C138.701 12.126 138.719 12.1536 138.742 12.1768L139.742 13.1768C139.789 13.2237 139.853 13.2501 139.919 13.2501C139.985 13.2501 140.049 13.2237 140.096 13.1768C140.143 13.1299 140.169 13.0663 140.169 13C140.169 12.9336 140.143 12.87 140.096 12.8231L139.523 12.25Z" fill="#6500FF" fill-opacity="0.5"/>
</g>
<path d="M157.919 10.8962C157.919 10.8306 157.906 10.7655 157.881 10.7048C157.856 10.6441 157.819 10.5891 157.772 10.5428L155.626 8.39624C155.58 8.3498 155.525 8.31296 155.464 8.28783C155.403 8.26269 155.338 8.24976 155.273 8.24976C155.207 8.24976 155.142 8.26269 155.081 8.28783C155.02 8.31296 154.965 8.3498 154.919 8.39624L154.03 9.28468L152.218 9.96499C152.136 9.99571 152.063 10.0475 152.007 10.1153C151.951 10.183 151.913 10.2643 151.899 10.3509L151.172 14.7087C151.166 14.7446 151.168 14.7813 151.178 14.8163C151.188 14.8513 151.205 14.8838 151.228 14.9115C151.252 14.9392 151.281 14.9615 151.314 14.9768C151.347 14.9921 151.383 15 151.419 15C151.433 14.9999 151.447 14.9988 151.46 14.9966L155.818 14.2703C155.904 14.2559 155.985 14.2189 156.053 14.1631C156.121 14.1073 156.173 14.0347 156.204 13.9525L156.884 12.14L157.772 11.25C157.819 11.2037 157.856 11.1486 157.881 11.0878C157.906 11.0271 157.919 10.962 157.919 10.8962ZM155.735 13.7772L152.148 14.375L153.628 12.8947C153.813 12.9946 154.028 13.0246 154.233 12.9793C154.438 12.934 154.62 12.8163 154.746 12.6478C154.871 12.4792 154.932 12.2712 154.917 12.0615C154.902 11.8519 154.811 11.6548 154.663 11.5062C154.514 11.3576 154.317 11.2674 154.107 11.2522C153.898 11.237 153.69 11.2977 153.521 11.4233C153.353 11.5489 153.235 11.7309 153.19 11.9361C153.144 12.1414 153.174 12.356 153.274 12.5409L151.794 14.0219L152.392 10.4331L154.106 9.79031L156.378 12.0625L155.735 13.7772ZM153.669 12.125C153.669 12.0508 153.691 11.9783 153.732 11.9167C153.773 11.855 153.832 11.8069 153.9 11.7785C153.969 11.7502 154.044 11.7427 154.117 11.7572C154.19 11.7717 154.257 11.8074 154.309 11.8598C154.362 11.9123 154.397 11.9791 154.412 12.0518C154.426 12.1246 154.419 12.2 154.39 12.2685C154.362 12.337 154.314 12.3956 154.252 12.4368C154.191 12.478 154.118 12.5 154.044 12.5C153.944 12.5 153.849 12.4605 153.779 12.3902C153.708 12.3198 153.669 12.2244 153.669 12.125ZM156.669 11.6462L154.522 9.49999L155.272 8.74999L157.419 10.8962L156.669 11.6462Z" fill="#6500FF" fill-opacity="0.5"/>
<path d="M168.669 9.75V10.75C168.669 10.8163 168.643 10.8799 168.596 10.9268C168.549 10.9737 168.485 11 168.419 11C168.353 11 168.289 10.9737 168.242 10.9268C168.195 10.8799 168.169 10.8163 168.169 10.75V10H166.419V14H167.169C167.235 14 167.299 14.0263 167.346 14.0732C167.393 14.1201 167.419 14.1837 167.419 14.25C167.419 14.3163 167.393 14.3799 167.346 14.4268C167.299 14.4737 167.235 14.5 167.169 14.5H165.169C165.103 14.5 165.039 14.4737 164.992 14.4268C164.945 14.3799 164.919 14.3163 164.919 14.25C164.919 14.1837 164.945 14.1201 164.992 14.0732C165.039 14.0263 165.103 14 165.169 14H165.919V10H164.169V10.75C164.169 10.8163 164.143 10.8799 164.096 10.9268C164.049 10.9737 163.985 11 163.919 11C163.853 11 163.789 10.9737 163.742 10.9268C163.695 10.8799 163.669 10.8163 163.669 10.75V9.75C163.669 9.6837 163.695 9.62011 163.742 9.57322C163.789 9.52634 163.853 9.5 163.919 9.5H168.419C168.485 9.5 168.549 9.52634 168.596 9.57322C168.643 9.62011 168.669 9.6837 168.669 9.75Z" fill="#6500FF" fill-opacity="0.5"/>
<g clip-path="url(#clip2_231_173)">
<path d="M176.669 9.5C176.669 9.5663 176.643 9.62989 176.596 9.67678C176.549 9.72366 176.485 9.75 176.419 9.75H175.419V10.25C175.419 10.3163 175.393 10.3799 175.346 10.4268C175.299 10.4737 175.235 10.5 175.169 10.5C175.103 10.5 175.039 10.4737 174.992 10.4268C174.945 10.3799 174.919 10.3163 174.919 10.25V9.75C174.919 9.61739 174.972 9.49021 175.065 9.39645C175.159 9.30268 175.286 9.25 175.419 9.25H176.419C176.485 9.25 176.549 9.27634 176.596 9.32322C176.643 9.37011 176.669 9.4337 176.669 9.5ZM175.169 12.75C175.235 12.75 175.299 12.7237 175.346 12.6768C175.393 12.6299 175.419 12.5663 175.419 12.5V11.5C175.419 11.4337 175.393 11.3701 175.346 11.3232C175.299 11.2763 175.235 11.25 175.169 11.25C175.103 11.25 175.039 11.2763 174.992 11.3232C174.945 11.3701 174.919 11.4337 174.919 11.5V12.5C174.919 12.5663 174.945 12.6299 174.992 12.6768C175.039 12.7237 175.103 12.75 175.169 12.75ZM176.419 14.25H175.419V13.75C175.419 13.6837 175.393 13.6201 175.346 13.5732C175.299 13.5263 175.235 13.5 175.169 13.5C175.103 13.5 175.039 13.5263 174.992 13.5732C174.945 13.6201 174.919 13.6837 174.919 13.75V14.25C174.919 14.3826 174.972 14.5098 175.065 14.6036C175.159 14.6973 175.286 14.75 175.419 14.75H176.419C176.485 14.75 176.549 14.7237 176.596 14.6768C176.643 14.6299 176.669 14.5663 176.669 14.5C176.669 14.4337 176.643 14.3701 176.596 14.3232C176.549 14.2763 176.485 14.25 176.419 14.25ZM178.669 14.25H177.669C177.603 14.25 177.539 14.2763 177.492 14.3232C177.445 14.3701 177.419 14.4337 177.419 14.5C177.419 14.5663 177.445 14.6299 177.492 14.6768C177.539 14.7237 177.603 14.75 177.669 14.75H178.669C178.735 14.75 178.799 14.7237 178.846 14.6768C178.893 14.6299 178.919 14.5663 178.919 14.5C178.919 14.4337 178.893 14.3701 178.846 14.3232C178.799 14.2763 178.735 14.25 178.669 14.25ZM181.169 13.5C181.103 13.5 181.039 13.5263 180.992 13.5732C180.945 13.6201 180.919 13.6837 180.919 13.75V14.25H179.919C179.853 14.25 179.789 14.2763 179.742 14.3232C179.695 14.3701 179.669 14.4337 179.669 14.5C179.669 14.5663 179.695 14.6299 179.742 14.6768C179.789 14.7237 179.853 14.75 179.919 14.75H180.919C181.052 14.75 181.179 14.6973 181.272 14.6036C181.366 14.5098 181.419 14.3826 181.419 14.25V13.75C181.419 13.6837 181.393 13.6201 181.346 13.5732C181.299 13.5263 181.235 13.5 181.169 13.5ZM181.169 11.25C181.103 11.25 181.039 11.2763 180.992 11.3232C180.945 11.3701 180.919 11.4337 180.919 11.5V12.5C180.919 12.5663 180.945 12.6299 180.992 12.6768C181.039 12.7237 181.103 12.75 181.169 12.75C181.235 12.75 181.299 12.7237 181.346 12.6768C181.393 12.6299 181.419 12.5663 181.419 12.5V11.5C181.419 11.4337 181.393 11.3701 181.346 11.3232C181.299 11.2763 181.235 11.25 181.169 11.25ZM180.919 9.25H179.919C179.853 9.25 179.789 9.27634 179.742 9.32322C179.695 9.37011 179.669 9.4337 179.669 9.5C179.669 9.5663 179.695 9.62989 179.742 9.67678C179.789 9.72366 179.853 9.75 179.919 9.75H180.919V10.25C180.919 10.3163 180.945 10.3799 180.992 10.4268C181.039 10.4737 181.103 10.5 181.169 10.5C181.235 10.5 181.299 10.4737 181.346 10.4268C181.393 10.3799 181.419 10.3163 181.419 10.25V9.75C181.419 9.61739 181.366 9.49021 181.272 9.39645C181.179 9.30268 181.052 9.25 180.919 9.25ZM178.669 9.25H177.669C177.603 9.25 177.539 9.27634 177.492 9.32322C177.445 9.37011 177.419 9.4337 177.419 9.5C177.419 9.5663 177.445 9.62989 177.492 9.67678C177.539 9.72366 177.603 9.75 177.669 9.75H178.669C178.735 9.75 178.799 9.72366 178.846 9.67678C178.893 9.62989 178.919 9.5663 178.919 9.5C178.919 9.4337 178.893 9.37011 178.846 9.32322C178.799 9.27634 178.735 9.25 178.669 9.25Z" fill="#6500FF" fill-opacity="0.5"/>
</g>
<path d="M192.919 9H188.919C188.853 9 188.789 9.02634 188.742 9.07322C188.695 9.12011 188.669 9.1837 188.669 9.25V10.5H187.419C187.353 10.5 187.289 10.5263 187.242 10.5732C187.195 10.6201 187.169 10.6837 187.169 10.75V14.75C187.169 14.8163 187.195 14.8799 187.242 14.9268C187.289 14.9737 187.353 15 187.419 15H191.419C191.485 15 191.549 14.9737 191.596 14.9268C191.643 14.8799 191.669 14.8163 191.669 14.75V13.5H192.919C192.985 13.5 193.049 13.4737 193.096 13.4268C193.143 13.3799 193.169 13.3163 193.169 13.25V9.25C193.169 9.1837 193.143 9.12011 193.096 9.07322C193.049 9.02634 192.985 9 192.919 9ZM191.169 14.5H187.669V11H191.169V14.5ZM192.669 13H191.669V10.75C191.669 10.6837 191.643 10.6201 191.596 10.5732C191.549 10.5263 191.485 10.5 191.419 10.5H189.169V9.5H192.669V13Z" fill="#6500FF" fill-opacity="0.5"/>
<path d="M295 12C295 12.0663 294.974 12.1299 294.927 12.1768C294.88 12.2237 294.816 12.25 294.75 12.25H289.25C289.184 12.25 289.12 12.2237 289.073 12.1768C289.026 12.1299 289 12.0663 289 12C289 11.9337 289.026 11.8701 289.073 11.8232C289.12 11.7763 289.184 11.75 289.25 11.75H294.75C294.816 11.75 294.88 11.7763 294.927 11.8232C294.974 11.8701 295 11.9337 295 12ZM289.25 10.25H294.75C294.816 10.25 294.88 10.2237 294.927 10.1768C294.974 10.1299 295 10.0663 295 10C295 9.9337 294.974 9.87011 294.927 9.82322C294.88 9.77634 294.816 9.75 294.75 9.75H289.25C289.184 9.75 289.12 9.77634 289.073 9.82322C289.026 9.87011 289 9.9337 289 10C289 10.0663 289.026 10.1299 289.073 10.1768C289.12 10.2237 289.184 10.25 289.25 10.25ZM294.75 13.75H289.25C289.184 13.75 289.12 13.7763 289.073 13.8232C289.026 13.8701 289 13.9337 289 14C289 14.0663 289.026 14.1299 289.073 14.1768C289.12 14.2237 289.184 14.25 289.25 14.25H294.75C294.816 14.25 294.88 14.2237 294.927 14.1768C294.974 14.1299 295 14.0663 295 14C295 13.9337 294.974 13.8701 294.927 13.8232C294.88 13.7763 294.816 13.75 294.75 13.75Z" fill="#6500FF" fill-opacity="0.1"/>
</g>
<rect x="0.5" y="0.5" width="319" height="179" rx="7.5" stroke="#6500FF" stroke-opacity="0.05"/>
<defs>
<linearGradient id="paint0_linear_231_173" x1="199.5" y1="45" x2="199.5" y2="155" gradientUnits="userSpaceOnUse">
<stop stop-color="white"/>
<stop offset="1" stop-color="white"/>
</linearGradient>
<clipPath id="clip0_231_173">
<rect width="320" height="180" rx="8" fill="white"/>
</clipPath>
<clipPath id="clip1_231_173">
<rect width="8" height="8" fill="white" transform="translate(138.169 8)"/>
</clipPath>
<clipPath id="clip2_231_173">
<rect width="8" height="8" fill="white" transform="translate(174.169 8)"/>
</clipPath>
</defs>
</svg>
