<svg width="128" height="128" viewBox="0 0 128 128" fill="none" xmlns="http://www.w3.org/2000/svg">
<path d="M0 32C0 14.3269 14.3269 0 32 0H96C113.673 0 128 14.3269 128 32V96C128 113.673 113.673 128 96 128H32C14.3269 128 0 113.673 0 96V32Z" fill="#6500FF"/>
<path d="M40.2965 34.2637L60.6885 54.6425L48.3507 66.9723L40.156 58.7829L16 82.9233V58.5935L40.2965 34.2637Z" fill="white"/>
<path d="M52.1148 32.6441L64.1062 44.631L76.0192 32.729L64.2826 21" fill="white"/>
<path d="M87.8473 34.2637L39.5842 82.4955V107.204L87.5369 59.2824L112 83.7331V58.5935L87.8473 34.2637Z" fill="white"/>
<path d="M88.5595 107.204V82.4727L79.7473 73.6661L67.4063 86.0188L88.5595 107.204Z" fill="white"/>
</svg>
