<svg width="128" height="65" viewBox="0 0 128 65" fill="none" xmlns="http://www.w3.org/2000/svg">
<path d="M123.464 21.2437C123.989 21.7866 124.608 22.0581 125.322 22.0581C126.059 22.0581 126.689 21.7866 127.213 21.2437C127.738 20.7007 128 20.0596 128 19.3202C128 18.5809 127.738 17.934 127.213 17.3795C126.689 16.825 126.059 16.5477 125.322 16.5477C124.608 16.5477 123.989 16.825 123.464 17.3795C122.94 17.934 122.678 18.5809 122.678 19.3202C122.678 20.0596 122.94 20.7007 123.464 21.2437Z" fill="#212067"/>
<path d="M66.995 28.3325C66.995 28.3893 66.9504 28.4353 66.8954 28.4353H63.2125V35.6437C63.2125 36.2445 63.3577 36.6834 63.6477 36.9607C63.9378 37.238 64.3618 37.3939 64.9197 37.4286C65.4301 37.4603 66.0525 37.4582 66.787 37.4221L66.8398 37.4196L66.8902 37.4169C66.9472 37.4138 66.995 37.4608 66.995 37.5197V41.3741C66.995 41.4265 66.9569 41.4704 66.9065 41.4762C66.882 41.4789 66.8572 41.4818 66.839 41.4837C63.9536 41.8022 61.9137 41.5076 60.7188 40.5997C59.5026 39.6754 58.8945 38.0235 58.8945 35.6437V28.4353H56.082C56.027 28.4353 55.9824 28.3893 55.9824 28.3325V24.2407C55.9824 24.1839 56.027 24.1379 56.082 24.1379H58.8945V21.2757C58.8945 21.1943 58.9412 21.1206 59.0133 21.0877L63.0727 19.2379C63.1385 19.2079 63.2125 19.2576 63.2125 19.3319V24.1379H66.8954C66.9504 24.1379 66.995 24.1839 66.995 24.2407V28.3325Z" fill="#212067"/>
<path d="M74.8249 27.1181C75.2266 26.0091 75.8905 25.1774 76.8166 24.6229C77.664 24.1154 78.6004 23.8402 79.6254 23.7971C79.675 23.795 79.7509 23.7935 79.8122 23.7925C79.8677 23.7916 79.9129 23.8378 79.9129 23.8949V28.5975C79.9129 28.6957 79.8302 28.7713 79.7354 28.7624C78.4903 28.6458 77.3722 28.9295 76.3814 29.6134C75.3438 30.3296 74.8249 31.5195 74.8249 33.1829V41.363C74.8249 41.4197 74.7803 41.4658 74.7253 41.4658H70.6065C70.5515 41.4658 70.5069 41.4197 70.5069 41.363V24.2405C70.5069 24.1837 70.5515 24.1377 70.6065 24.1377H74.7253C74.7803 24.1377 74.8249 24.1837 74.8249 24.2405V27.1181Z" fill="#212067"/>
<path fill-rule="evenodd" clip-rule="evenodd" d="M95.2424 24.1374C95.1874 24.1374 95.1428 24.1834 95.1428 24.2402V26.1821C93.8484 24.4955 92.0298 23.6522 89.6866 23.6522C87.4551 23.6522 85.5416 24.5359 83.946 26.3034C82.3504 28.0709 81.5527 30.2369 81.5527 32.8015C81.5527 35.366 82.3504 37.532 83.946 39.2996C85.5416 41.067 87.4551 41.9507 89.6866 41.9507C92.0298 41.9507 93.8484 41.1074 95.1428 39.4208V41.3628C95.1428 41.4196 95.1874 41.4655 95.2424 41.4655H99.3612C99.4162 41.4655 99.4608 41.4196 99.4608 41.3628V24.2402C99.4608 24.1834 99.4162 24.1374 99.3612 24.1374H95.2424ZM87.1758 36.3366C88.0462 37.2377 89.1508 37.6883 90.4897 37.6883C91.8287 37.6883 92.9388 37.232 93.8202 36.3194C94.7017 35.4067 95.1425 34.2342 95.1425 32.8016C95.1425 31.3692 94.7017 30.1967 93.8202 29.2841C92.9388 28.3715 91.8287 27.9152 90.4897 27.9152C89.1508 27.9152 88.0462 28.3715 87.1758 29.2841C86.3055 30.1967 85.8703 31.3692 85.8703 32.8016C85.8703 34.2342 86.3055 35.4125 87.1758 36.3366Z" fill="#212067"/>
<path fill-rule="evenodd" clip-rule="evenodd" d="M118.215 26.3034C116.62 24.5359 114.695 23.6522 112.441 23.6522C110.098 23.6522 108.291 24.4955 107.019 26.1821V24.2402C107.019 24.1834 106.974 24.1374 106.919 24.1374H102.8C102.745 24.1374 102.701 24.1834 102.701 24.2402V48.294C102.701 48.3507 102.745 48.3968 102.8 48.3968H106.919C106.974 48.3968 107.019 48.3507 107.019 48.294V39.4208C108.291 41.1074 110.098 41.9507 112.441 41.9507C114.695 41.9507 116.62 41.067 118.215 39.2996C119.811 37.532 120.609 35.366 120.609 32.8015C120.609 30.2369 119.811 28.0709 118.215 26.3034ZM108.324 36.3366C109.194 37.2377 110.299 37.6883 111.638 37.6883C112.977 37.6883 114.087 37.232 114.968 36.3194C115.85 35.4067 116.29 34.2342 116.29 32.8016C116.29 31.3692 115.85 30.1967 114.968 29.2841C114.087 28.3715 112.977 27.9152 111.638 27.9152C110.299 27.9152 109.194 28.3715 108.324 29.2841C107.453 30.1967 107.018 31.3692 107.018 32.8016C107.018 34.2342 107.453 35.4125 108.324 36.3366Z" fill="#212067"/>
<path d="M123.28 41.4659C123.225 41.4659 123.18 41.4199 123.18 41.3631V24.2406C123.18 24.1838 123.225 24.1378 123.28 24.1378H127.399C127.454 24.1378 127.498 24.1838 127.498 24.2406V41.3631C127.498 41.4199 127.454 41.4659 127.399 41.4659H123.28Z" fill="#212067"/>
<path d="M46.2025 30.1849C45.6111 29.8961 45.3154 29.5206 45.3154 29.0586C45.3154 28.6196 45.4995 28.273 45.8677 28.0189C46.2359 27.7647 46.699 27.6377 47.2568 27.6377C48.3266 27.6377 49.1348 28.0694 49.6812 28.9329C49.7194 28.9931 49.7935 29.0175 49.8573 28.9883L53.5004 27.3196C53.5547 27.2947 53.576 27.2268 53.5457 27.1741C53.5057 27.104 53.4527 27.0127 53.4176 26.9555C52.7931 25.9392 51.9853 25.1821 50.9724 24.6052C49.8566 23.9699 48.6181 23.6522 47.2568 23.6522C45.4493 23.6522 43.9374 24.1431 42.7212 25.1251C41.505 26.107 40.8969 27.4528 40.8969 29.1625C40.8969 30.2946 41.1927 31.2361 41.784 31.987C42.3754 32.7379 43.095 33.2866 43.943 33.6332C44.791 33.9797 45.639 34.2685 46.487 34.4996C47.3349 34.7307 48.0546 34.9906 48.6461 35.2794C49.2374 35.5681 49.533 35.9437 49.533 36.4057C49.533 37.3992 48.7631 37.896 47.2234 37.896C45.7577 37.896 44.742 37.3351 44.1763 36.2135C44.1278 36.1171 44.0166 36.073 43.9203 36.1172L40.2875 37.7838C40.2363 37.8072 40.2139 37.8697 40.2382 37.9218C40.253 37.9532 40.2685 37.9861 40.2797 38.0095C41.5493 40.6369 43.8639 41.9508 47.2234 41.9508C49.1426 41.9508 50.7436 41.4714 52.0267 40.5124C53.3099 39.5536 53.9515 38.1847 53.9515 36.4057C53.9515 35.2274 53.6557 34.2454 53.0645 33.4599C52.473 32.6744 51.7535 32.1141 50.9054 31.7791C50.0574 31.4441 49.2094 31.1668 48.3615 30.9473C47.5135 30.7278 46.7938 30.4737 46.2025 30.1849Z" fill="#212067"/>
<path d="M0 27.6411C0 22.4116 0 19.7969 1.57444 18.1723C3.14889 16.5477 5.68291 16.5477 10.751 16.5477H20.2615C25.3296 16.5477 27.8635 16.5477 29.438 18.1723C31.0124 19.7969 31.0124 22.4116 31.0124 27.6411V37.4544C31.0124 42.6839 31.0124 45.2985 29.438 46.9231C27.8635 48.5477 25.3296 48.5477 20.2615 48.5477H10.751C5.68291 48.5477 3.14889 48.5477 1.57444 46.9231C0 45.2985 0 42.6839 0 37.4544V27.6411Z" fill="#4945FF"/>
<path fill-rule="evenodd" clip-rule="evenodd" d="M21.3986 26.2544H10.9577V31.7477H16.2815V37.241H21.6053V26.4677C21.6053 26.3499 21.5127 26.2544 21.3986 26.2544Z" fill="white"/>
<path d="M16.2815 31.7477L16.0747 31.7477V31.9611H16.2814L16.2815 31.7477Z" fill="white"/>
<path d="M10.9577 31.7477L16.0747 31.7477C16.1889 31.7477 16.2814 31.8433 16.2814 31.9611L16.2815 37.241L11.1644 37.241C11.0502 37.241 10.9577 37.1456 10.9577 37.0277V31.7477Z" fill="#9593FF"/>
<path d="M16.2815 37.241H21.6053L16.4579 42.5523C16.3928 42.6194 16.2815 42.5719 16.2815 42.4769V37.241Z" fill="#9593FF"/>
<path d="M10.9577 31.7477L5.88341 31.7477C5.79132 31.7477 5.7452 31.6328 5.81031 31.5656L10.9577 26.2544V31.7477Z" fill="#9593FF"/>
</svg>
