<svg width="128" height="65" viewBox="0 0 128 65" fill="none" xmlns="http://www.w3.org/2000/svg">
<g opacity="0.7">
<path d="M95.139 29.4005V45.1517H89.9619V32.0902L95.139 29.4005Z" fill="#E84031"/>
<path d="M25.856 45.5477L37.9531 39.2218L36.4612 35.3589L28.4967 39.0726L25.856 45.5477Z" fill="#E84031"/>
<path d="M89.9632 32.0766L103.088 25.36L100.871 21.6097L89.9632 26.9401V32.0766Z" fill="#E84031"/>
<path d="M52.999 28.1541V45.1517H48.0619V20.9438L52.999 28.1541Z" fill="#E84031"/>
<path d="M33.3375 27.2141L25.8573 45.5477L22.0094 42.2356L30.9219 20.9438L33.3375 27.2141Z" fill="#E84031"/>
<path d="M30.9219 20.9438H36.0217L45.4537 45.1517H40.2331L30.9219 20.9438Z" fill="#E84031"/>
<path d="M53.7626 20.9438L64.635 37.483V45.1517L48.0619 20.9438H53.7626Z" fill="#E84031"/>
<path d="M79.0854 20.9438H73.9476V45.1557H79.0854V20.9438Z" fill="#E84031"/>
<path d="M82.0531 25.36V20.9438H100.475L103.087 25.36H82.0531Z" fill="#E84031"/>
<path d="M118.258 35.9652V45.1503H113.158V35.9652" fill="#E84031"/>
<path d="M113.158 35.9652L121.787 20.9438H127.206L118.258 35.9652H113.158Z" fill="#E84031"/>
<path d="M113.158 35.9652L104.287 20.9438H109.867L115.876 31.2384L113.158 35.9652Z" fill="#E84031"/>
<path d="M2.86605 23.7378C2.86605 27.1083 4.98465 29.1144 9.22727 30.1723L13.7222 31.1963C17.7369 32.1024 20.181 34.3525 20.181 38.0187C20.2122 39.6151 19.6833 41.1749 18.6837 42.4349C18.6837 38.7769 16.7577 36.8007 12.1122 35.6126L7.69868 34.6265C4.16406 33.8344 1.43647 31.9844 1.43647 28.0022C1.42019 26.4641 1.92204 24.964 2.86605 23.7378Z" fill="#E84031"/>
<path d="M64.635 20.9438H69.5721V45.1517H64.635V20.9438Z" fill="#E84031"/>
<path d="M15.9235 37.1208C17.84 38.3252 18.6809 40.0112 18.6809 42.4295C17.094 44.426 14.3054 45.5477 11.0285 45.5477C5.51226 45.5477 1.65213 42.8798 0.794922 38.2452H6.09142C6.77366 40.3733 8.57894 41.3594 10.9892 41.3594C13.931 41.3594 15.8869 39.8172 15.9262 37.1113" fill="#E84031"/>
<path d="M5.62077 28.7346C4.74593 28.2232 4.02707 27.4895 3.5415 26.6092C3.05729 25.7289 2.824 24.7375 2.86605 23.7378C4.39735 21.7576 7.0612 20.5477 10.3083 20.5477C15.9276 20.5477 19.1787 23.4639 19.9803 27.5681H14.8846C14.323 25.95 12.9151 24.69 10.3503 24.69C7.60916 24.69 5.74013 26.2579 5.63162 28.7346" fill="#E84031"/>
</g>
</svg>
