<svg width="25" height="24" viewBox="0 0 25 24" fill="none" xmlns="http://www.w3.org/2000/svg">
<path d="M15.5298 4.34312C15.6703 4.48374 15.7492 4.67437 15.7492 4.87312C15.7492 5.07187 15.6703 5.26249 15.5298 5.40312L13.5598 7.37512L15.5298 9.34712C15.6623 9.48929 15.7344 9.67734 15.731 9.87164C15.7276 10.0659 15.6489 10.2513 15.5114 10.3887C15.374 10.5262 15.1887 10.6049 14.9944 10.6083C14.8 10.6117 14.612 10.5396 14.4698 10.4071L11.9698 7.90512C11.8294 7.76449 11.7505 7.57387 11.7505 7.37512C11.7505 7.17637 11.8294 6.98574 11.9698 6.84512L14.4698 4.34312C14.6105 4.20267 14.8011 4.12378 14.9998 4.12378C15.1986 4.12378 15.3892 4.20267 15.5298 4.34312ZM18.7198 4.34312C18.5794 4.48374 18.5005 4.67437 18.5005 4.87312C18.5005 5.07187 18.5794 5.26249 18.7198 5.40312L20.6898 7.37512L18.7198 9.34712C18.5873 9.48929 18.5152 9.67734 18.5187 9.87164C18.5221 10.0659 18.6008 10.2513 18.7382 10.3887C18.8756 10.5262 19.061 10.6049 19.2553 10.6083C19.4496 10.6117 19.6377 10.5396 19.7798 10.4071L22.2798 7.90512C22.4203 7.76449 22.4992 7.57387 22.4992 7.37512C22.4992 7.17637 22.4203 6.98574 22.2798 6.84512L19.7798 4.34312C19.6392 4.20267 19.4486 4.12378 19.2498 4.12378C19.0511 4.12378 18.8605 4.20267 18.7198 4.34312Z" fill="#6500FF"/>
<path d="M22.5 15.344V11.662C22.071 12.1973 21.5656 12.6667 21 13.055V15.344C21 15.5429 20.921 15.7337 20.7803 15.8743C20.6397 16.015 20.4489 16.094 20.25 16.094H4.75C4.55109 16.094 4.36032 16.015 4.21967 15.8743C4.07902 15.7337 4 15.5429 4 15.344V6.75C4 6.55109 4.07902 6.36032 4.21967 6.21967C4.36032 6.07902 4.55109 6 4.75 6H10.388C10.4926 5.48268 10.657 4.97929 10.878 4.5H4.75C4.15326 4.5 3.58097 4.73705 3.15901 5.15901C2.73705 5.58097 2.5 6.15326 2.5 6.75V15.344C2.5 15.9407 2.73705 16.513 3.15901 16.935C3.58097 17.3569 4.15326 17.594 4.75 17.594H11.75V19.25H9.5C9.30109 19.25 9.11032 19.329 8.96967 19.4697C8.82902 19.6103 8.75 19.8011 8.75 20C8.75 20.1989 8.82902 20.3897 8.96967 20.5303C9.11032 20.671 9.30109 20.75 9.5 20.75H15.5C15.6989 20.75 15.8897 20.671 16.0303 20.5303C16.171 20.3897 16.25 20.1989 16.25 20C16.25 19.8011 16.171 19.6103 16.0303 19.4697C15.8897 19.329 15.6989 19.25 15.5 19.25H13.25V17.594H20.25C20.8467 17.594 21.419 17.3569 21.841 16.935C22.2629 16.513 22.5 15.9407 22.5 15.344Z" fill="#6500FF"/>
</svg>
