<svg width="46" height="45" viewBox="0 0 46 45" fill="none" xmlns="http://www.w3.org/2000/svg">
<g clip-path="url(#clip0_181_349)">
<path d="M20.8478 8.24827C21.3928 7.70324 22.1301 7.39509 22.8974 7.39161C23.6647 7.38813 24.3992 7.6896 24.9393 8.22971L27.202 10.4924C27.3821 10.6725 27.4826 10.9173 27.4814 11.1731C27.4802 11.4288 27.3775 11.6746 27.1959 11.8563C27.0142 12.038 26.7684 12.1407 26.5127 12.1418C26.2569 12.143 26.0121 12.0425 25.832 11.8625L23.5693 9.59972C23.3892 9.41969 23.1444 9.3192 22.8886 9.32036C22.6329 9.32152 22.3871 9.42424 22.2054 9.60591L19.9221 11.8893C19.7404 12.071 19.4947 12.1737 19.2389 12.1748C18.9831 12.176 18.7383 12.0755 18.5583 11.8955C18.3782 11.7154 18.2777 11.4706 18.2789 11.2148C18.28 10.9591 18.3828 10.7133 18.5644 10.5316L20.8478 8.24827ZM33.0772 17.7376C33.2588 17.5559 33.5046 17.4532 33.7604 17.452C34.0161 17.4509 34.261 17.5514 34.441 17.7314L36.7037 19.9942C37.2439 20.5343 37.5453 21.2688 37.5418 22.0361C37.5384 22.8034 37.2302 23.5406 36.6852 24.0856L34.4018 26.369C34.2201 26.5507 33.9744 26.6534 33.7186 26.6546C33.4629 26.6557 33.218 26.5552 33.038 26.3752C32.858 26.1952 32.7575 25.9503 32.7586 25.6946C32.7598 25.4388 32.8625 25.193 33.0442 25.0114L35.3275 22.728C35.5092 22.5463 35.6119 22.3006 35.6131 22.0448C35.6143 21.789 35.5138 21.5442 35.3337 21.3642L33.071 19.1014C32.891 18.9214 32.7905 18.6766 32.7916 18.4208C32.7928 18.165 32.8955 17.9193 33.0772 17.7376ZM12.6215 17.8322C12.8015 18.0122 12.902 18.2571 12.9009 18.5128C12.8997 18.7686 12.797 19.0144 12.6153 19.196L10.3319 21.4794C9.95382 21.8575 9.95015 22.4676 10.3258 22.8432L12.5885 25.106C12.7685 25.286 12.869 25.5309 12.8679 25.7866C12.8667 26.0424 12.764 26.2881 12.5823 26.4698C12.4006 26.6515 12.1549 26.7542 11.8991 26.7554C11.6433 26.7565 11.3985 26.656 11.2185 26.476L8.95574 24.2133C8.41564 23.6732 8.11416 22.9387 8.11764 22.1714C8.12113 21.4041 8.42927 20.6668 8.9743 20.1218L11.2577 17.8384C11.4393 17.6567 11.6851 17.554 11.9409 17.5528C12.1966 17.5517 12.4415 17.6522 12.6215 17.8322ZM27.1012 32.312C27.2813 32.492 27.3818 32.7368 27.3806 32.9926C27.3794 33.2484 27.2767 33.4941 27.095 33.6758L24.8117 35.9591C24.2667 36.5042 23.5294 36.8123 22.7621 36.8158C21.9948 36.8193 21.2603 36.5178 20.7202 35.9777L18.4574 33.715C18.2774 33.5349 18.1769 33.2901 18.1781 33.0343C18.1792 32.7786 18.282 32.5328 18.4636 32.3511C18.6453 32.1695 18.8911 32.0667 19.1468 32.0656C19.4026 32.0644 19.6474 32.1649 19.8275 32.345L22.0902 34.6077C22.2702 34.7877 22.5151 34.8882 22.7708 34.8871C23.0266 34.8859 23.2724 34.7832 23.454 34.6015L25.7374 32.3181C25.9191 32.1365 26.1648 32.0337 26.4206 32.0326C26.6764 32.0314 26.9212 32.1319 27.1012 32.312Z" fill="#6500FF"/>
</g>
<defs>
<clipPath id="clip0_181_349">
<rect width="32" height="31" fill="white" transform="translate(22.6465) rotate(45)"/>
</clipPath>
</defs>
</svg>
