<svg width="32" height="32" viewBox="0 0 32 32" fill="none" xmlns="http://www.w3.org/2000/svg">
<path fill-rule="evenodd" clip-rule="evenodd" d="M16.4609 6.62529C15.7679 6.36628 15.0099 6.36628 14.3169 6.62529L3.72618 10.58C2.22474 11.14 2.22474 13.352 3.72618 13.9133L14.3169 17.868C15.0103 18.1273 15.7688 18.1273 16.4622 17.868L27.0529 13.912C28.5543 13.352 28.5543 11.14 27.0529 10.58L16.4609 6.62529ZM14.9671 8.50662C15.2414 8.40392 15.5415 8.40392 15.8158 8.50662L25.8267 12.2453L15.8158 15.984C15.5411 16.087 15.2405 16.087 14.9659 15.984L4.9537 12.2466L14.9671 8.50662Z" fill="#6500FF"/>
<path d="M3.7249 18.0866L6.46922 17.0613L9.31466 18.1239L4.9537 19.7519L14.9646 23.4906C15.2393 23.5936 15.5398 23.5936 15.8145 23.4906L25.8254 19.7519L21.4657 18.1253L24.3099 17.0613L27.0529 18.0866C28.5543 18.6466 28.5543 20.8586 27.0529 21.4199L16.4622 25.3733C15.7688 25.6326 15.0103 25.6326 14.3169 25.3733L3.72618 21.4186C2.22474 20.8586 2.22474 18.6466 3.72618 18.0853" fill="#6500FF"/>
</svg>
