<svg width="32" height="31" viewBox="0 0 32 31" fill="none" xmlns="http://www.w3.org/2000/svg">
<path d="M11.6005 23.3082C11.5417 21.8473 10.5842 20.4743 9.29271 19.2007C7.92734 17.8552 6.99036 16.1296 6.60141 14.2442C6.21245 12.3588 6.38918 10.3992 7.10902 8.61569C7.82886 6.83215 9.05915 5.30558 10.6428 4.23091C12.2264 3.15625 14.0915 2.58228 15.9999 2.58228C17.9083 2.58228 19.7734 3.15625 21.357 4.23091C22.9407 5.30558 24.1709 6.83215 24.8908 8.61569C25.6106 10.3992 25.7874 12.3588 25.3984 14.2442C25.0095 16.1296 24.0725 17.8552 22.7071 19.2007C21.3746 20.5143 20.3967 21.9351 20.3967 23.4503V25.5105C20.3967 26.2812 20.0933 27.0205 19.5532 27.5655C19.0131 28.1105 18.2805 28.4167 17.5167 28.4167H14.4793C13.7154 28.4167 12.9829 28.1105 12.4428 27.5655C11.9027 27.0205 11.5993 26.2812 11.5993 25.5105L11.6005 23.3082ZM8.31991 12.2709C8.31841 13.3044 8.52246 14.3277 8.91998 15.2802C9.3175 16.2327 9.90039 17.095 10.6341 17.816C11.5826 18.7512 12.5695 19.9253 13.1084 21.3125H15.0399V15.2947C14.6348 15.1507 14.2669 14.9168 13.9634 14.6101L12.8805 13.5173C12.7889 13.4279 12.7158 13.321 12.6656 13.2028C12.6153 13.0846 12.5889 12.9574 12.5878 12.8288C12.5868 12.7002 12.6111 12.5726 12.6595 12.4536C12.7078 12.3346 12.7791 12.2264 12.8693 12.1355C12.9595 12.0446 13.0667 11.9727 13.1847 11.9241C13.3027 11.8754 13.4291 11.851 13.5566 11.8521C13.6841 11.8533 13.81 11.8801 13.9271 11.9309C14.0442 11.9818 14.1501 12.0556 14.2386 12.1482L15.3215 13.2396C15.5015 13.421 15.7455 13.5229 15.9999 13.5229C16.2543 13.5229 16.4983 13.421 16.6783 13.2396L17.7612 12.1469C17.8491 12.0517 17.9551 11.9754 18.0728 11.9224C18.1906 11.8695 18.3177 11.841 18.4466 11.8387C18.5755 11.8364 18.7035 11.8603 18.8231 11.9091C18.9426 11.9578 19.0512 12.0303 19.1424 12.1223C19.2335 12.2143 19.3054 12.3239 19.3537 12.4445C19.4019 12.5651 19.4257 12.6943 19.4234 12.8244C19.4211 12.9545 19.3929 13.0827 19.3404 13.2016C19.288 13.3204 19.2123 13.4274 19.118 13.516L18.0364 14.6088C17.733 14.9159 17.3651 15.1503 16.9599 15.2947V21.3125H18.8914C19.4303 19.9253 20.4172 18.7499 21.3657 17.816C22.272 16.9229 22.9453 15.8173 23.3257 14.5979C23.706 13.3785 23.7815 12.0831 23.5454 10.8271C23.3093 9.57116 22.7691 8.39362 21.9727 7.39942C21.1763 6.40523 20.1486 5.62526 18.9811 5.12902C17.8137 4.63278 16.5427 4.43568 15.2814 4.55528C14.0201 4.67488 12.8078 5.10746 11.7523 5.81448C10.6969 6.52151 9.83118 7.48102 9.2323 8.60751C8.63341 9.73401 8.31997 10.9925 8.31991 12.2709ZM13.5205 23.5252V25.5105C13.5205 26.0452 13.9493 26.4792 14.4805 26.4792H17.5167C17.7713 26.4792 18.0155 26.3771 18.1955 26.1955C18.3756 26.0138 18.4767 25.7674 18.4767 25.5105V23.25H13.5193V23.272C13.5213 23.3564 13.5226 23.4408 13.5205 23.5252Z" fill="#6500FF"/>
</svg>
