<svg width="26" height="24" viewBox="0 0 26 24" fill="none" xmlns="http://www.w3.org/2000/svg">
<path d="M3.63618 9.5421C3.58473 9.73438 3.61177 9.93923 3.71135 10.1116C3.81093 10.2839 3.9749 10.4097 4.16718 10.4611C4.35946 10.5126 4.56431 10.4855 4.73665 10.3859C4.909 10.2864 5.03473 10.1224 5.08618 9.9301C5.5275 8.28547 6.48209 6.82455 7.81105 5.75991C9.14001 4.69527 10.774 4.08244 12.4753 4.0106C14.1766 3.93876 15.8565 4.41165 17.2704 5.36047C18.6844 6.30928 19.7588 7.68453 20.3372 9.2861L18.6622 8.3431C18.5763 8.2942 18.4817 8.26274 18.3836 8.25053C18.2856 8.23832 18.1861 8.24561 18.0909 8.27197C17.9956 8.29833 17.9066 8.34324 17.8287 8.40413C17.7509 8.46502 17.6859 8.54069 17.6374 8.62678C17.589 8.71287 17.558 8.80769 17.5462 8.9058C17.5345 9.0039 17.5423 9.10336 17.5691 9.19845C17.596 9.29354 17.6413 9.38239 17.7026 9.4599C17.7639 9.53741 17.8398 9.60205 17.9262 9.6501L21.0062 11.3851C21.0921 11.4335 21.1866 11.4645 21.2845 11.4763C21.3823 11.4881 21.4815 11.4805 21.5765 11.4539C21.6714 11.4274 21.7601 11.3824 21.8376 11.3215C21.9151 11.2606 21.9799 11.185 22.0282 11.0991L23.7632 8.0191C23.8609 7.84578 23.8858 7.64074 23.8323 7.44908C23.7789 7.25741 23.6515 7.09484 23.4782 6.9971C23.3049 6.89937 23.0998 6.87449 22.9082 6.92794C22.7165 6.98139 22.5539 7.10878 22.4562 7.2821L21.6952 8.6341C20.9828 6.75515 19.693 5.15049 18.0111 4.0508C16.3293 2.95111 14.3421 2.41304 12.3351 2.51394C10.3282 2.61485 8.40497 3.34954 6.84191 4.61238C5.27886 5.87522 4.15649 7.60118 3.63618 9.5421ZM21.9902 14.4581C22.0196 14.3618 22.0294 14.2606 22.0189 14.1604C22.0083 14.0603 21.9778 13.9633 21.9289 13.8752C21.8801 13.7871 21.8141 13.7098 21.7347 13.6478C21.6554 13.5858 21.5644 13.5404 21.4671 13.5143C21.3698 13.4883 21.2683 13.4821 21.1686 13.4961C21.0689 13.5101 20.973 13.544 20.8867 13.5959C20.8004 13.6478 20.7254 13.7165 20.6662 13.798C20.607 13.8794 20.5648 13.972 20.5422 14.0701C20.1014 15.7147 19.1475 17.1758 17.8191 18.2408C16.4907 19.3058 14.8571 19.9193 13.1561 19.9919C11.455 20.0645 9.77513 19.5925 8.36081 18.6445C6.94648 17.6966 5.87148 16.3221 5.29218 14.7211L6.95518 15.6571C7.12842 15.7535 7.33279 15.7774 7.52361 15.7236C7.71443 15.6698 7.87617 15.5425 7.97346 15.3698C8.07074 15.197 8.09566 14.9928 8.04276 14.8017C7.98987 14.6106 7.86346 14.4482 7.69118 14.3501L4.61118 12.6161C4.52537 12.5677 4.43086 12.5366 4.33304 12.5248C4.23523 12.5129 4.13604 12.5204 4.04113 12.5468C3.94622 12.5733 3.85745 12.6182 3.77991 12.679C3.70236 12.7398 3.63755 12.8153 3.58918 12.9011L1.85418 15.9821C1.80527 16.068 1.77381 16.1626 1.76161 16.2607C1.7494 16.3587 1.75668 16.4582 1.78304 16.5534C1.8094 16.6487 1.85432 16.7377 1.91521 16.8155C1.9761 16.8933 2.05176 16.9584 2.13785 17.0068C2.22395 17.0553 2.31877 17.0863 2.41687 17.098C2.51498 17.1098 2.61444 17.102 2.70953 17.0752C2.80462 17.0483 2.89347 17.003 2.97098 16.9417C3.04849 16.8804 3.11312 16.8044 3.16118 16.7181L3.92818 15.3561C4.63871 17.2368 5.92757 18.8436 7.60927 19.9453C9.29098 21.0469 11.2788 21.5867 13.2868 21.4869C15.2947 21.387 17.2193 20.6528 18.7834 19.3897C20.3476 18.1267 21.4697 16.4 21.9902 14.4581Z" fill="#6500FF"/>
</svg>
