<svg width="24" height="24" viewBox="0 0 24 24" fill="none" xmlns="http://www.w3.org/2000/svg">
<path d="M6.24681 3.25C5.65007 3.25 5.07778 3.48705 4.65582 3.90901C4.23386 4.33097 3.99681 4.90326 3.99681 5.5V13.674C3.86614 13.852 3.76348 14.0487 3.68881 14.264L2.47681 17.764C2.35948 18.103 2.32489 18.465 2.37591 18.8201C2.42694 19.1751 2.5621 19.5128 2.77014 19.805C2.97818 20.0972 3.25305 20.3354 3.57185 20.4998C3.89065 20.6642 4.24413 20.75 4.60281 20.75H9.74681V19.25H4.60281C4.48334 19.2499 4.36564 19.2212 4.2595 19.1664C4.15335 19.1115 4.06184 19.0322 3.99258 18.9348C3.92331 18.8375 3.87831 18.725 3.8613 18.6068C3.8443 18.4885 3.85578 18.3679 3.89481 18.255L5.10581 14.755C5.15678 14.6075 5.25247 14.4796 5.37955 14.3891C5.50663 14.2986 5.65878 14.25 5.81481 14.25H9.74681V12.75H5.49681V5.5C5.49681 5.30109 5.57583 5.11032 5.71648 4.96967C5.85713 4.82902 6.0479 4.75 6.24681 4.75H17.7468C17.9457 4.75 18.1365 4.82902 18.2771 4.96967C18.4178 5.11032 18.4968 5.30109 18.4968 5.5V9.75H19.9968V5.5C19.9968 4.90326 19.7598 4.33097 19.3378 3.90901C18.9158 3.48705 18.3435 3.25 17.7468 3.25H6.24681ZM15.8118 18.25C15.8118 18.0378 15.8961 17.8343 16.0461 17.6843C16.1962 17.5343 16.3996 17.45 16.6118 17.45H16.6218C16.834 17.45 17.0375 17.5343 17.1875 17.6843C17.3375 17.8343 17.4218 18.0378 17.4218 18.25C17.4218 18.4622 17.3375 18.6657 17.1875 18.8157C17.0375 18.9657 16.834 19.05 16.6218 19.05H16.6118C16.3996 19.05 16.1962 18.9657 16.0461 18.8157C15.8961 18.6657 15.8118 18.4622 15.8118 18.25Z" fill="#6500FF"/>
<path fill-rule="evenodd" clip-rule="evenodd" d="M12.5918 13.5C12.5918 12.9033 12.8288 12.331 13.2508 11.909C13.6728 11.4871 14.2451 11.25 14.8418 11.25H18.4018C18.9985 11.25 19.5708 11.4871 19.9928 11.909C20.4147 12.331 20.6518 12.9033 20.6518 13.5V19.75C20.6518 20.3467 20.4147 20.919 19.9928 21.341C19.5708 21.7629 18.9985 22 18.4018 22H14.8418C14.2451 22 13.6728 21.7629 13.2508 21.341C12.8288 20.919 12.5918 20.3467 12.5918 19.75V13.5ZM14.8418 12.75C14.6429 12.75 14.4521 12.829 14.3115 12.9697C14.1708 13.1103 14.0918 13.3011 14.0918 13.5V19.75C14.0918 20.164 14.4278 20.5 14.8418 20.5H18.4018C18.6007 20.5 18.7915 20.421 18.9321 20.2803C19.0728 20.1397 19.1518 19.9489 19.1518 19.75V13.5C19.1518 13.3011 19.0728 13.1103 18.9321 12.9697C18.7915 12.829 18.6007 12.75 18.4018 12.75H14.8418Z" fill="#6500FF"/>
</svg>
