<svg width="24" height="24" viewBox="0 0 24 24" fill="none" xmlns="http://www.w3.org/2000/svg">
<path d="M10 9.23291C10 8.90139 9.8683 8.58345 9.63388 8.34903C9.39946 8.11461 9.08152 7.98291 8.75 7.98291C8.41848 7.98291 8.10054 8.11461 7.86612 8.34903C7.6317 8.58345 7.5 8.90139 7.5 9.23291C7.5 9.56443 7.6317 9.88237 7.86612 10.1168C8.10054 10.3512 8.41848 10.4829 8.75 10.4829C9.08152 10.4829 9.39946 10.3512 9.63388 10.1168C9.8683 9.88237 10 9.56443 10 9.23291ZM15.25 7.98291C15.4142 7.98291 15.5767 8.01524 15.7284 8.07806C15.88 8.14088 16.0178 8.23295 16.1339 8.34903C16.25 8.4651 16.342 8.6029 16.4049 8.75456C16.4677 8.90621 16.5 9.06876 16.5 9.23291C16.5 9.39706 16.4677 9.55961 16.4049 9.71126C16.342 9.86292 16.25 10.0007 16.1339 10.1168C16.0178 10.2329 15.88 10.3249 15.7284 10.3878C15.5767 10.4506 15.4142 10.4829 15.25 10.4829C14.9185 10.4829 14.6005 10.3512 14.3661 10.1168C14.1317 9.88237 14 9.56443 14 9.23291C14 8.90139 14.1317 8.58345 14.3661 8.34903C14.6005 8.11461 14.9185 7.98291 15.25 7.98291ZM9.23 13.7119C9.10416 13.5625 8.925 13.4681 8.73063 13.4488C8.53627 13.4295 8.34202 13.4867 8.18922 13.6084C8.03642 13.7301 7.93711 13.9065 7.91242 14.1003C7.88772 14.2941 7.9396 14.4898 8.057 14.6459C8.52842 15.2396 9.12794 15.719 9.81073 16.0484C10.4935 16.3777 11.2419 16.5485 12 16.5479C12.7581 16.5485 13.5065 16.3777 14.1893 16.0484C14.8721 15.719 15.4716 15.2396 15.943 14.6459C16.0076 14.5693 16.0561 14.4804 16.0858 14.3847C16.1155 14.2889 16.1256 14.1882 16.1157 14.0885C16.1058 13.9887 16.076 13.892 16.028 13.804C15.9801 13.7159 15.915 13.6384 15.8366 13.576C15.7582 13.5136 15.668 13.4675 15.5715 13.4405C15.475 13.4134 15.374 13.4061 15.2746 13.4187C15.1752 13.4314 15.0793 13.4639 14.9926 13.5142C14.9059 13.5646 14.8302 13.6318 14.77 13.7119C14.439 14.1291 14.0178 14.4661 13.5381 14.6974C13.0584 14.9288 12.5326 15.0486 12 15.0479C11.4674 15.0486 10.9416 14.9288 10.4619 14.6974C9.98216 14.4661 9.56102 14.1291 9.23 13.7119Z" fill="#6500FF"/>
<path fill-rule="evenodd" clip-rule="evenodd" d="M12 2C6.477 2 2 6.477 2 12C2 17.523 6.477 22 12 22C17.523 22 22 17.523 22 12C22 6.477 17.523 2 12 2ZM3.5 12C3.5 9.74566 4.39553 7.58365 5.98959 5.98959C7.58365 4.39553 9.74566 3.5 12 3.5C14.2543 3.5 16.4163 4.39553 18.0104 5.98959C19.6045 7.58365 20.5 9.74566 20.5 12C20.5 14.2543 19.6045 16.4163 18.0104 18.0104C16.4163 19.6045 14.2543 20.5 12 20.5C9.74566 20.5 7.58365 19.6045 5.98959 18.0104C4.39553 16.4163 3.5 14.2543 3.5 12Z" fill="#6500FF"/>
</svg>
