<svg width="32" height="32" viewBox="0 0 32 32" fill="none" xmlns="http://www.w3.org/2000/svg">
<path d="M9.99451 10.0774C9.84356 9.92661 9.65626 9.81731 9.45071 9.76009C9.24516 9.70286 9.02833 9.69964 8.82117 9.75074C8.6122 9.79927 8.4196 9.90177 8.26262 10.048C8.10563 10.1942 7.98974 10.3791 7.92651 10.5841L2.72651 26.7747C2.65568 26.9919 2.64635 27.2244 2.69956 27.4466C2.75276 27.6687 2.86642 27.8718 3.02793 28.0333C3.18945 28.1948 3.39253 28.3085 3.61467 28.3617C3.83681 28.4149 4.06934 28.4056 4.28651 28.3347L20.4892 23.1347C20.6924 23.0684 20.8755 22.9516 21.0214 22.7954C21.1674 22.6392 21.2714 22.4486 21.3238 22.2414C21.3749 22.0342 21.3717 21.8174 21.3145 21.6119C21.2573 21.4063 21.148 21.219 20.9972 21.0681L9.99451 10.0774ZM5.83451 25.2401L9.66784 13.2801L17.7932 21.4067L5.83451 25.2401ZM16.6692 12.7601C16.7087 13.0599 16.8554 13.3353 17.082 13.5355C17.3087 13.7357 17.6001 13.8472 17.9025 13.8494C18.4452 13.8494 18.9972 13.7254 19.5345 13.6561C20.291 13.5558 20.9852 13.1842 21.488 12.6102C21.9909 12.0362 22.268 11.2991 22.2678 10.5361V10.1494C22.2696 9.97667 22.339 9.8115 22.4611 9.68935C22.5833 9.5672 22.7484 9.49781 22.9212 9.49607H24.9758C25.1394 9.49625 25.3014 9.46415 25.4526 9.40163C25.6038 9.33911 25.7411 9.24739 25.8568 9.13171C25.9725 9.01604 26.0642 8.87868 26.1267 8.72751C26.1893 8.57634 26.2213 8.41433 26.2212 8.25074C26.2213 8.08715 26.1893 7.92513 26.1267 7.77396C26.0642 7.62279 25.9725 7.48544 25.8568 7.36976C25.7411 7.25409 25.6038 7.16236 25.4526 7.09984C25.3014 7.03732 25.1394 7.00523 24.9758 7.0054H22.9198C22.0876 7.00717 21.2902 7.33936 20.7029 7.92894C20.1156 8.51851 19.7864 9.31721 19.7878 10.1494V10.5361C19.7888 10.694 19.7314 10.8468 19.6265 10.965C19.5217 11.0831 19.3768 11.1583 19.2198 11.1761L17.7452 11.3707C17.419 11.414 17.1231 11.5841 16.9216 11.8443C16.7202 12.1044 16.6295 12.4335 16.6692 12.7601ZM28.8452 14.5027C25.7012 12.0961 22.3025 14.2241 20.9372 15.6867C20.8259 15.8058 20.7392 15.9456 20.682 16.0981C20.6248 16.2507 20.5983 16.413 20.6038 16.5758C20.6094 16.7387 20.647 16.8988 20.7145 17.0471C20.782 17.1954 20.878 17.3289 20.9972 17.4401C21.1154 17.5521 21.2546 17.6397 21.4067 17.6979C21.5589 17.7561 21.721 17.7838 21.8838 17.7793C22.0466 17.7748 22.207 17.7384 22.3557 17.6719C22.5044 17.6055 22.6386 17.5104 22.7505 17.3921C22.8465 17.2827 25.2038 14.8414 27.3332 16.4721C27.4622 16.5722 27.6098 16.6457 27.7674 16.6885C27.925 16.7312 28.0895 16.7423 28.2514 16.7211C28.4133 16.6999 28.5694 16.6468 28.7107 16.565C28.852 16.4831 28.9756 16.374 29.0745 16.2441C29.1745 16.115 29.248 15.9673 29.2906 15.8097C29.3333 15.652 29.3443 15.4875 29.3229 15.3256C29.3016 15.1637 29.2484 15.0076 29.1664 14.8663C29.0844 14.7251 28.9752 14.6015 28.8452 14.5027ZM15.2292 10.1494C16.6198 9.0854 18.0225 6.59474 16.1972 4.11607C16.1008 3.98361 15.9792 3.87155 15.8393 3.78636C15.6994 3.70118 15.544 3.64455 15.3821 3.61976C15.2202 3.59496 15.055 3.60249 14.896 3.64191C14.737 3.68132 14.5874 3.75185 14.4558 3.8494C14.3234 3.94575 14.2113 4.06739 14.1261 4.20729C14.0409 4.34719 13.9843 4.50258 13.9595 4.66448C13.9347 4.82639 13.9423 4.99161 13.9817 5.15059C14.0211 5.30957 14.0916 5.45916 14.1892 5.59074C15.1452 6.88407 14.0558 7.91207 13.7065 8.19074C13.4463 8.39201 13.2761 8.68786 13.2329 9.01395C13.1898 9.34004 13.277 9.67 13.4758 9.93207C13.9025 10.4854 14.6838 10.5521 15.2292 10.1494Z" fill="#6500FF"/>
</svg>
