<svg width="24" height="25" viewBox="0 0 24 25" fill="none" xmlns="http://www.w3.org/2000/svg">
<path fill-rule="evenodd" clip-rule="evenodd" d="M15.2439 2.58602C15.3823 2.6586 15.4946 2.77259 15.565 2.91207C15.6355 3.05156 15.6606 3.20956 15.6369 3.36402L14.3519 11.749H18.8039C18.9539 11.7491 19.1004 11.7941 19.2245 11.8783C19.3487 11.9625 19.4447 12.0819 19.5003 12.2212C19.5558 12.3605 19.5683 12.5133 19.5362 12.6598C19.504 12.8063 19.4287 12.9398 19.3199 13.043L9.55991 22.294C9.44641 22.4015 9.30219 22.4708 9.14738 22.4923C8.99258 22.5137 8.83493 22.4863 8.69647 22.4138C8.558 22.3414 8.44564 22.2274 8.37508 22.088C8.30452 21.9485 8.27929 21.7905 8.30291 21.636L9.58891 13.251H5.13691C4.98693 13.251 4.84041 13.2059 4.71628 13.1218C4.59215 13.0376 4.49611 12.9181 4.44055 12.7788C4.385 12.6395 4.37249 12.4867 4.40464 12.3403C4.43679 12.1938 4.51212 12.0603 4.62091 11.957L14.3799 2.70602C14.4934 2.59843 14.6377 2.52901 14.7927 2.5075C14.9476 2.48598 15.1054 2.51344 15.2439 2.58602ZM7.01791 11.75H10.4619C10.5701 11.7499 10.677 11.7732 10.7754 11.8183C10.8737 11.8635 10.9611 11.9293 11.0316 12.0114C11.1021 12.0935 11.154 12.1898 11.1837 12.2938C11.2135 12.3979 11.2204 12.5071 11.2039 12.614L10.1179 19.7L16.9219 13.25H13.4779C13.3698 13.25 13.263 13.2266 13.1648 13.1814C13.0666 13.1362 12.9793 13.0703 12.9089 12.9883C12.8385 12.9062 12.7867 12.8099 12.757 12.706C12.7273 12.602 12.7205 12.4929 12.7369 12.386L13.8229 5.30202L7.01791 11.75Z" fill="#6500FF"/>
</svg>
