<svg width="128" height="65" viewBox="0 0 128 65" fill="none" xmlns="http://www.w3.org/2000/svg">
<path d="M13.8271 46.5525C12.4557 45.3135 12.0554 42.7104 12.6267 40.8246C13.6174 42.0135 14.9901 42.3903 16.4119 42.6027C18.6069 42.9309 20.7625 42.8082 22.8016 41.8167C23.0348 41.7033 23.2504 41.5521 23.5053 41.3994C23.6966 41.9478 23.7464 42.5016 23.6796 43.0653C23.5171 44.4381 22.8258 45.4986 21.7264 46.3023C21.2867 46.6239 20.8215 46.9113 20.3675 47.2146C18.9725 48.1461 18.5951 49.2387 19.1193 50.8281C19.1317 50.8668 19.1428 50.9055 19.171 51C18.4588 50.685 17.9385 50.2263 17.5422 49.6233C17.1235 48.9867 16.9243 48.2826 16.9138 47.5209C16.9086 47.1501 16.9086 46.776 16.8581 46.4106C16.7349 45.5196 16.3117 45.1206 15.5143 45.0975C14.6959 45.0741 14.0485 45.5739 13.8769 46.3614C13.8638 46.4217 13.8448 46.4814 13.8258 46.5516L13.8271 46.5525Z" fill="#17191E"/>
<path d="M6 40.5102C6 40.5102 10.0608 38.5553 14.133 38.5553L17.2033 29.1646C17.3183 28.7105 17.6539 28.4019 18.0328 28.4019C18.4117 28.4019 18.7473 28.7105 18.8623 29.1646L21.9326 38.5553C26.7554 38.5553 30.0657 40.5102 30.0657 40.5102C30.0657 40.5102 23.1679 21.9399 23.1544 21.9026C22.9565 21.3536 22.6223 21 22.1717 21H13.8946C13.444 21 13.1233 21.3536 12.9119 21.9026C12.897 21.9392 6 40.5102 6 40.5102Z" fill="#17191E"/>
<path d="M48.8146 34.5368C48.8146 36.1824 46.7435 37.1651 43.8758 37.1651C42.0092 37.1651 41.3492 36.708 41.3492 35.7481C41.3492 34.7425 42.1685 34.2626 44.0348 34.2626C45.7193 34.2626 47.153 34.2854 48.8146 34.4911V34.5368ZM48.8374 32.5027C47.8132 32.2742 46.2654 32.137 44.4219 32.137C39.0504 32.137 36.5242 33.3941 36.5242 36.3195C36.5242 39.3593 38.2539 40.5249 42.2596 40.5249C45.651 40.5249 47.9495 39.6792 48.7919 37.5994H48.9282C48.9054 38.1022 48.8826 38.605 48.8826 38.9936C48.8826 40.0678 49.0648 40.1592 49.9524 40.1592H54.1402C53.9126 39.5192 53.776 37.7137 53.776 36.1595C53.776 34.4911 53.8443 33.2341 53.8443 31.5428C53.8443 28.0916 51.7506 25.8975 45.1956 25.8975C42.3734 25.8975 39.2325 26.3775 36.8429 27.086C37.0703 28.0231 37.389 29.92 37.5484 31.1542C39.6196 30.1943 42.5556 29.7829 44.8317 29.7829C47.9723 29.7829 48.8374 30.4914 48.8374 31.9313V32.5027Z" fill="#17191E"/>
<path d="M60.3279 35.4967C59.7591 35.5653 58.985 35.5653 58.1885 35.5653C57.3464 35.5653 56.5726 35.5424 56.049 35.4739C56.049 35.6567 56.0262 35.8624 56.0262 36.0452C56.0262 38.9021 57.9153 40.5705 64.5614 40.5705C70.8201 40.5705 72.8457 38.925 72.8457 36.0224C72.8457 33.2798 71.5031 31.9313 65.5628 31.6342C60.9423 31.4285 60.5328 30.9257 60.5328 30.3543C60.5328 29.6915 61.1245 29.3487 64.2199 29.3487C67.4291 29.3487 68.2939 29.7829 68.2939 30.6971V30.9028C68.7489 30.88 69.5685 30.8571 70.4106 30.8571C71.2071 30.8571 72.072 30.88 72.5728 30.9257C72.5728 30.72 72.5956 30.5372 72.5956 30.3772C72.5956 27.0174 69.7731 25.9204 64.3109 25.9204C58.1657 25.9204 56.0945 27.406 56.0945 30.3086C56.0945 32.9141 57.7562 34.5368 63.651 34.7882C67.9979 34.9253 68.476 35.4053 68.476 36.0681C68.476 36.7766 67.7703 37.0966 64.7207 37.0966C61.2155 37.0966 60.3279 36.6166 60.3279 35.6339V35.4967Z" fill="#17191E"/>
<path d="M80.3579 23.452C78.6965 24.9833 75.715 26.5146 74.0536 26.926C74.0764 27.7717 74.0764 29.3258 74.0764 30.1715L75.6011 30.1943C75.5784 31.817 75.5556 33.7826 75.5556 35.0853C75.5556 38.125 77.1714 40.4106 82.2014 40.4106C84.3181 40.4106 85.7293 40.182 87.4818 39.8164C87.2996 38.6964 87.0947 36.9823 87.0264 35.6796C85.9795 36.0224 84.6596 36.2052 83.2028 36.2052C81.1772 36.2052 80.3579 35.6567 80.3579 34.0797C80.3579 32.7084 80.3579 31.4285 80.3806 30.24C82.9754 30.2629 85.57 30.3086 87.0947 30.3543C87.072 29.1658 87.1175 27.4517 87.1858 26.3089C84.978 26.3546 82.4974 26.3775 80.4489 26.3775C80.4717 25.3719 80.4945 24.412 80.5172 23.452H80.3579Z" fill="#17191E"/>
<path d="M93.9515 29.4858C93.9742 28.2973 93.997 27.2917 94.0198 26.3089H89.4449C89.5132 28.2745 89.5132 30.2857 89.5132 33.2341C89.5132 36.1824 89.4904 38.2165 89.4449 40.1592H94.6797C94.5887 38.7879 94.5659 36.4795 94.5659 34.5139C94.5659 31.4056 95.8405 30.5143 98.731 30.5143C100.074 30.5143 101.03 30.6743 101.872 30.9714C101.895 29.8058 102.122 27.5431 102.259 26.5375C101.394 26.2861 100.438 26.1261 99.2771 26.1261C96.7964 26.1032 94.9757 27.1089 94.1336 29.5087L93.9515 29.4858Z" fill="#17191E"/>
<path d="M116.74 33.1426C116.74 35.6339 114.919 36.7995 112.052 36.7995C109.207 36.7995 107.386 35.7024 107.386 33.1426C107.386 30.5828 109.23 29.6229 112.052 29.6229C114.897 29.6229 116.74 30.6514 116.74 33.1426ZM121.497 33.0283C121.497 28.0688 117.582 25.8518 112.052 25.8518C106.498 25.8518 102.72 28.0688 102.72 33.0283C102.72 37.9651 106.248 40.6164 112.029 40.6164C117.855 40.6164 121.497 37.9651 121.497 33.0283Z" fill="#17191E"/>
</svg>
