<svg width="103" height="24" viewBox="0 0 103 24" fill="none" xmlns="http://www.w3.org/2000/svg">
<g clip-path="url(#clip0_199_7)">
<path d="M6.79015 3.69273L12.4891 9.36636L9.04105 12.7991L6.75089 10.5191L0 17.24V10.4664L6.79015 3.69273Z" fill="#6500FF"/>
<path d="M10.093 3.24182L13.4442 6.57909L16.7736 3.26545L13.4936 0" fill="#6500FF"/>
<path d="M20.0792 3.69273L6.59108 17.1209V24L19.9924 10.6582L26.8291 17.4655V10.4664L20.0792 3.69273Z" fill="#6500FF"/>
<path d="M20.2782 24V17.1145L17.8155 14.6627L14.3665 18.1018L20.2782 24Z" fill="#6500FF"/>
<path d="M39.9526 20.4878H36.4111V3.21437H39.9526V13.1569L43.678 9.03328H48.1163L43.793 13.5693L47.9783 20.4878H43.885L41.3094 16.2038L39.9526 17.6242V20.4878Z" fill="black"/>
<path d="M47.9065 14.7376C47.9065 13.5311 48.1747 12.4773 48.7113 11.5762C49.2632 10.6598 50.0145 9.94964 50.965 9.44564C51.9308 8.94164 53.027 8.68964 54.2535 8.68964C55.4799 8.68964 56.5684 8.94164 57.519 9.44564C58.4695 9.94964 59.213 10.6598 59.7496 11.5762C60.3015 12.4773 60.5775 13.5311 60.5775 14.7376C60.5775 15.9442 60.3015 16.998 59.7496 17.8991C59.213 18.8002 58.4695 19.5027 57.519 20.0067C56.5684 20.5107 55.4799 20.7627 54.2535 20.7627C53.027 20.7627 51.9308 20.5107 50.965 20.0067C50.0145 19.5027 49.2632 18.8002 48.7113 17.8991C48.1747 16.998 47.9065 15.9442 47.9065 14.7376ZM51.4709 14.7147C51.4709 15.2951 51.5859 15.8067 51.8158 16.2496C52.0611 16.6773 52.3908 17.0133 52.8047 17.2576C53.2186 17.4867 53.7015 17.6013 54.2535 17.6013C54.8054 17.6013 55.2883 17.4867 55.7022 17.2576C56.1162 17.0133 56.4381 16.6773 56.6681 16.2496C56.898 15.8067 57.013 15.2951 57.013 14.7147C57.013 14.1344 56.898 13.6304 56.6681 13.2027C56.4381 12.7751 56.1162 12.4467 55.7022 12.2176C55.2883 11.9733 54.8054 11.8511 54.2535 11.8511C53.7015 11.8511 53.2186 11.9733 52.8047 12.2176C52.3908 12.4467 52.0611 12.7751 51.8158 13.2027C51.5859 13.6304 51.4709 14.1344 51.4709 14.7147Z" fill="black"/>
<path d="M66.9999 20.7856C65.8961 20.7856 64.9379 20.5413 64.1254 20.0526C63.3128 19.5638 62.6766 18.8766 62.2167 17.9907C61.7721 17.0896 61.5498 16.0358 61.5498 14.8293C61.5498 13.6075 61.7797 12.5384 62.2397 11.622C62.6996 10.6904 63.3512 9.96492 64.1944 9.44564C65.0529 8.92637 66.0647 8.66673 67.2299 8.66673C67.9504 8.66673 68.6174 8.79655 69.2306 9.05619C69.8592 9.31582 70.3421 9.65946 70.6794 10.0871V3.21437H74.2208V20.4878H70.8863L70.7024 19.0216C70.3957 19.5409 69.9051 19.9685 69.2306 20.3046C68.5714 20.6253 67.8278 20.7856 66.9999 20.7856ZM67.8508 17.5555C68.4027 17.5555 68.8856 17.4409 69.2996 17.2118C69.7288 16.9675 70.0585 16.6315 70.2884 16.2038C70.5337 15.7609 70.6564 15.2569 70.6564 14.6918C70.6564 14.1115 70.5337 13.6075 70.2884 13.1798C70.0585 12.7522 69.7288 12.4238 69.2996 12.1947C68.8856 11.9504 68.4027 11.8282 67.8508 11.8282C67.2989 11.8282 66.816 11.9504 66.402 12.1947C65.9881 12.4391 65.6661 12.7751 65.4362 13.2027C65.2215 13.6304 65.1142 14.1267 65.1142 14.6918C65.1142 15.2569 65.2215 15.7533 65.4362 16.1809C65.6661 16.6086 65.9881 16.9446 66.402 17.1889C66.816 17.4333 67.2989 17.5555 67.8508 17.5555Z" fill="black"/>
<path d="M81.2496 20.7856C80.1458 20.7856 79.1876 20.5413 78.3751 20.0526C77.5625 19.5638 76.9263 18.8766 76.4664 17.9907C76.0218 17.0896 75.7995 16.0358 75.7995 14.8293C75.7995 13.6075 76.0294 12.5384 76.4894 11.622C76.9493 10.6904 77.6009 9.96492 78.4441 9.44564C79.3026 8.92637 80.3144 8.66673 81.4796 8.66673C82.2001 8.66673 82.867 8.79655 83.4803 9.05619C84.1088 9.31582 84.5918 9.65946 84.929 10.0871V3.21437H88.4705V20.4878H85.136L84.952 19.0216C84.6454 19.5409 84.1548 19.9685 83.4803 20.3046C82.821 20.6253 82.0775 20.7856 81.2496 20.7856ZM82.1005 17.5555C82.6524 17.5555 83.1353 17.4409 83.5493 17.2118C83.9785 16.9675 84.3081 16.6315 84.5381 16.2038C84.7834 15.7609 84.906 15.2569 84.906 14.6918C84.906 14.1115 84.7834 13.6075 84.5381 13.1798C84.3081 12.7522 83.9785 12.4238 83.5493 12.1947C83.1353 11.9504 82.6524 11.8282 82.1005 11.8282C81.5486 11.8282 81.0657 11.9504 80.6517 12.1947C80.2378 12.4391 79.9158 12.7751 79.6859 13.2027C79.4712 13.6304 79.3639 14.1267 79.3639 14.6918C79.3639 15.2569 79.4712 15.7533 79.6859 16.1809C79.9158 16.6086 80.2378 16.9446 80.6517 17.1889C81.0657 17.4333 81.5486 17.5555 82.1005 17.5555Z" fill="black"/>
<path d="M90.0492 14.7376C90.0492 13.5311 90.3174 12.4773 90.854 11.5762C91.4059 10.6598 92.1572 9.94964 93.1077 9.44564C94.0735 8.94164 95.1697 8.68964 96.3962 8.68964C97.6226 8.68964 98.7111 8.94164 99.6616 9.44564C100.612 9.94964 101.356 10.6598 101.892 11.5762C102.444 12.4773 102.72 13.5311 102.72 14.7376C102.72 15.9442 102.444 16.998 101.892 17.8991C101.356 18.8002 100.612 19.5027 99.6616 20.0067C98.7111 20.5107 97.6226 20.7627 96.3962 20.7627C95.1697 20.7627 94.0735 20.5107 93.1077 20.0067C92.1572 19.5027 91.4059 18.8002 90.854 17.8991C90.3174 16.998 90.0492 15.9442 90.0492 14.7376ZM93.6136 14.7147C93.6136 15.2951 93.7286 15.8067 93.9585 16.2496C94.2038 16.6773 94.5334 17.0133 94.9474 17.2576C95.3613 17.4867 95.8442 17.6013 96.3962 17.6013C96.9481 17.6013 97.431 17.4867 97.8449 17.2576C98.2589 17.0133 98.5808 16.6773 98.8108 16.2496C99.0407 15.8067 99.1557 15.2951 99.1557 14.7147C99.1557 14.1344 99.0407 13.6304 98.8108 13.2027C98.5808 12.7751 98.2589 12.4467 97.8449 12.2176C97.431 11.9733 96.9481 11.8511 96.3962 11.8511C95.8442 11.8511 95.3613 11.9733 94.9474 12.2176C94.5334 12.4467 94.2038 12.7751 93.9585 13.2027C93.7286 13.6304 93.6136 14.1344 93.6136 14.7147Z" fill="black"/>
</g>
<defs>
<clipPath id="clip0_199_7">
<rect width="103" height="24" fill="white"/>
</clipPath>
</defs>
</svg>
