<svg width="128" height="65" viewBox="0 0 128 65" fill="none" xmlns="http://www.w3.org/2000/svg">
<g clip-path="url(#clip0_187_99)">
<path d="M51.4941 42.157V22.1429H60.1284C62.6556 22.1429 64.5486 22.71 65.8076 23.8442C67.0664 24.9687 67.6957 26.4889 67.6957 28.4045C67.6957 29.8531 67.3355 31.0826 66.6148 32.0928C65.8941 33.103 64.808 33.8226 63.3572 34.2515C64.2314 35.4809 65.0869 36.758 65.9229 38.0827C66.759 39.4074 67.5613 40.7655 68.3299 42.157H64.7986C64.097 40.8036 63.3572 39.4837 62.5788 38.1971C61.8099 36.9105 61.0555 35.7334 60.3156 34.666C60.258 34.666 60.1955 34.666 60.1284 34.666H54.5211V42.157H51.4941ZM59.8401 24.9306H54.5211V31.9355H59.8401C61.4736 31.9355 62.6747 31.6496 63.4437 31.0778C64.2123 30.4964 64.5968 29.6149 64.5968 28.4331C64.5968 27.2513 64.2123 26.3745 63.4437 25.8027C62.6747 25.2213 61.4736 24.9306 59.8401 24.9306ZM77.298 42.5001C75.9142 42.5001 74.6986 42.1856 73.651 41.5566C72.6132 40.9276 71.8012 40.0507 71.2152 38.9262C70.6386 37.8015 70.3504 36.5006 70.3504 35.0234C70.3504 33.5462 70.6386 32.2453 71.2152 31.1207C71.8012 29.9865 72.6132 29.105 73.651 28.476C74.6986 27.8374 75.9142 27.5182 77.298 27.5182H77.6151C78.8738 27.5182 79.9791 27.8279 80.9304 28.4474C81.8911 29.0573 82.6406 29.9437 83.179 31.1064C83.717 32.2596 83.9862 33.651 83.9862 35.2807V36.1528H73.3339C73.5069 37.325 73.9491 38.2495 74.66 38.9262C75.3807 39.5933 76.3178 39.9269 77.471 39.9269H77.7593C78.4512 39.9269 79.1142 39.7887 79.7484 39.5123C80.3827 39.2264 80.9158 38.8451 81.3482 38.3686L83.1214 40.2271C82.4677 40.9228 81.6605 41.4755 80.6998 41.8854C79.7484 42.2952 78.72 42.5001 77.6151 42.5001H77.298ZM77.2115 30.0914C76.1831 30.0914 75.3231 30.4297 74.6312 31.1064C73.9491 31.7735 73.5166 32.6884 73.3339 33.8512H81.0888C81.0023 32.7933 80.6515 31.9022 80.0367 31.1779C79.4313 30.4535 78.5856 30.0914 77.4998 30.0914H77.2115ZM91.2798 42.4429C89.7613 42.4429 88.5793 42.0569 87.7339 41.285C86.8979 40.5034 86.4797 39.4789 86.4797 38.2114C86.4797 36.9533 86.9507 35.9002 87.8923 35.052C88.8436 34.2038 90.3573 33.7797 92.4329 33.7797H96.3536V33.7368C96.3536 31.3351 95.2387 30.1343 93.0095 30.1343C92.0773 30.1343 91.2892 30.301 90.6456 30.6346C90.0113 30.9682 89.497 31.4352 89.1031 32.0356L87.1285 30.4488C87.7433 29.5053 88.5505 28.7809 89.5501 28.2758C90.5591 27.7707 91.7025 27.5182 92.9807 27.5182H93.2978C95.0657 27.5182 96.488 28.0233 97.5644 29.0335C98.6404 30.0437 99.1788 31.5543 99.1788 33.5653V42.157H96.4113V39.8268C95.8538 40.6654 95.1379 41.3135 94.2634 41.771C93.3888 42.2189 92.3944 42.4429 91.2798 42.4429ZM91.914 39.8983C93.0286 39.8983 93.956 39.6504 94.6958 39.1549C95.4356 38.6497 95.9882 37.9683 96.3536 37.1106V36.0241H92.5483C91.4142 36.0241 90.6022 36.2052 90.1121 36.5674C89.6317 36.92 89.3914 37.4013 89.3914 38.0112C89.3914 39.2693 90.2323 39.8983 91.914 39.8983ZM109.465 42.5001C108.082 42.5001 106.857 42.1999 105.79 41.5995C104.723 40.999 103.887 40.1413 103.282 39.0262C102.686 37.9016 102.388 36.5674 102.388 35.0234C102.388 33.4699 102.686 32.1357 103.282 31.0206C103.877 29.896 104.704 29.0335 105.761 28.4331C106.828 27.8231 108.062 27.5182 109.465 27.5182H109.782C110.897 27.5182 111.949 27.8041 112.939 28.3759C113.939 28.9382 114.746 29.7149 115.361 30.7061L113.127 32.2501C112.714 31.602 112.219 31.0969 111.642 30.7347C111.065 30.363 110.412 30.1772 109.682 30.1772H109.393C108.144 30.1772 107.159 30.6156 106.438 31.4924C105.727 32.3596 105.372 33.5319 105.372 35.0091C105.372 36.4768 105.727 37.649 106.438 38.5259C107.159 39.4027 108.144 39.8411 109.393 39.8411H109.682C110.412 39.8411 111.085 39.679 111.7 39.355C112.314 39.031 112.843 38.5974 113.285 38.0541L115.361 39.7982C114.717 40.6369 113.905 41.2992 112.925 41.7853C111.954 42.2618 110.907 42.5001 109.782 42.5001H109.465ZM125.01 42.3428C123.3 42.3428 121.998 41.914 121.104 41.0562C120.211 40.1985 119.764 38.8785 119.764 37.0963V30.3487H116.938V27.8613H119.764V23.6011H122.647V27.8613H127.504V30.3487H122.647V36.7103C122.647 37.8349 122.882 38.6164 123.353 39.0548C123.824 39.4932 124.52 39.7124 125.443 39.7124C125.885 39.7124 126.279 39.6933 126.625 39.6552C126.98 39.6171 127.346 39.5695 127.72 39.5123V42.014C127.336 42.1093 126.903 42.1856 126.423 42.2428C125.943 42.3095 125.472 42.3428 125.01 42.3428Z" fill="#23272F"/>
<path d="M22.3156 36.8454C24.5641 36.8454 26.387 34.9719 26.387 32.6608C26.387 30.3498 24.5641 28.4763 22.3156 28.4763C20.067 28.4763 18.2441 30.3498 18.2441 32.6608C18.2441 34.9719 20.067 36.8454 22.3156 36.8454Z" fill="#087EA4"/>
<path d="M43.5774 32.5482C43.5774 29.3766 40.6314 26.592 35.9435 24.7649C36.7013 19.7939 35.7573 15.8533 33.0029 14.2674C30.5431 12.85 27.1366 13.5437 23.4104 16.2227C23.0806 16.4589 22.7533 16.7103 22.426 16.9716C22.1012 16.7103 21.7739 16.4589 21.4466 16.2227C17.7204 13.5437 14.314 12.8475 11.8541 14.2674C9.10229 15.8533 8.15815 19.7914 8.9185 24.7574C4.2255 26.587 1.27979 29.3741 1.27979 32.5482C1.27979 35.7198 4.2255 38.5044 8.91347 40.3315C8.15565 45.3025 9.09979 49.2432 11.8541 50.8289C12.6875 51.3091 13.6316 51.5477 14.6589 51.5477C16.6605 51.5477 18.9843 50.643 21.4466 48.8738C21.7764 48.6375 22.1037 48.386 22.431 48.1248C22.7558 48.386 23.0831 48.6375 23.4104 48.8738C25.8727 50.6454 28.1966 51.5477 30.1981 51.5477C31.2254 51.5477 32.1695 51.3091 33.0029 50.8289C35.4627 49.4115 36.5628 46.1193 36.1023 41.5579C36.062 41.1558 36.0089 40.7487 35.9435 40.334C40.6342 38.5069 43.5774 35.7223 43.5774 32.5482ZM24.5887 17.8537C26.6834 16.3483 28.6321 15.5642 30.1981 15.5642C30.8754 15.5642 31.4797 15.71 31.9958 16.0066C33.7985 17.047 34.5689 20.0301 34.0175 24.0964C32.2048 23.541 30.1981 23.1163 28.0405 22.8449C26.7489 21.1485 25.3793 19.618 23.9769 18.3111C24.1808 18.1553 24.3848 17.9995 24.5887 17.8537ZM12.8612 16.0066C13.3774 15.71 13.9816 15.5642 14.6589 15.5642C16.2249 15.5642 18.1736 16.3458 20.2683 17.8537C20.4723 17.9995 20.6762 18.1528 20.8801 18.3111C19.4778 19.618 18.1106 21.146 16.8191 22.8424C14.6639 23.1138 12.6548 23.541 10.842 24.0939C10.2906 20.0301 11.0586 17.047 12.8612 16.0066ZM3.29395 32.5482C3.29395 30.4698 5.49945 28.311 9.30371 26.7553C9.72921 28.5975 10.3637 30.5452 11.2021 32.5432C10.3586 34.5436 9.72418 36.4939 9.29868 38.3386C5.49945 36.7829 3.29395 34.6266 3.29395 32.5482ZM20.2683 47.2426C17.2672 49.399 14.5682 50.0723 12.8612 49.0899C11.0586 48.0495 10.2881 45.0663 10.8395 41C12.6522 41.5554 14.6589 41.9801 16.8166 42.2515C18.1081 43.9479 19.4778 45.4784 20.8801 46.7853C20.6762 46.9436 20.4723 47.0969 20.2683 47.2426ZM22.4285 45.4759C19.9108 43.1739 17.4913 40.0977 15.4494 36.5693C14.9031 35.6268 13.7985 33.2579 13.3503 32.3406C12.9928 33.1951 12.6397 33.979 12.3627 34.8133C12.5893 35.233 13.463 37.1523 13.7047 37.572C14.183 38.3988 14.6841 39.2031 15.2002 39.9822C13.7525 39.7283 12.4131 39.4016 11.1945 39.0171C11.8869 35.8957 13.2691 32.2969 15.4494 28.5271C15.9857 27.5998 17.1508 25.5292 17.735 24.6697C16.8135 24.7878 16.0735 24.7487 15.2074 24.9271C14.9556 25.3343 13.9464 27.1047 13.7047 27.5244C13.2212 28.3587 12.7782 29.1931 12.3627 30.0225C11.8592 28.6428 11.474 27.3208 11.1996 26.0743C14.2535 25.1117 18.0679 24.5061 22.4285 24.5061C23.5187 24.5061 25.7954 24.484 26.8126 24.5569C26.2511 23.8205 25.7696 23.154 25.183 22.4956C24.7072 22.4805 22.9144 22.4956 22.4285 22.4956C21.4668 22.4956 20.5251 22.5282 19.6011 22.5835C20.5176 21.4953 21.4668 20.5001 22.4285 19.6205C24.9437 21.9225 27.3657 24.9987 29.4076 28.5271C29.9439 29.4545 31.1026 31.6133 31.5583 32.5482C31.9183 31.6937 32.2589 30.9144 32.5384 30.075C32.3118 29.6528 31.3941 27.9391 31.1523 27.5219C30.674 26.6951 30.173 25.8908 29.6568 25.1143C31.1045 25.3681 32.4439 25.6948 33.6625 26.0793C32.9701 29.2007 31.5879 32.7995 29.4076 36.5693C28.8713 37.4966 27.3451 39.6203 26.761 40.4798C27.6825 40.3616 28.6804 40.1851 29.5465 40.0066C29.7983 39.5995 30.9107 37.9917 31.1523 37.572C31.6332 36.7427 32.0764 35.9133 32.4867 35.0865C32.9752 36.4285 33.3629 37.7479 33.6449 39.0246C30.5934 39.9872 26.7842 40.5903 22.4285 40.5903C21.3384 40.5903 18.8037 40.4472 17.7865 40.3743C18.348 41.1106 18.9527 41.8773 19.5393 42.5358C20.0151 42.5508 21.9426 42.6009 22.4285 42.6009C23.3903 42.6009 24.3319 42.5682 25.2559 42.5129C24.3369 43.6011 23.3903 44.5963 22.4285 45.4759ZM31.9958 49.0899C30.2888 50.0751 27.5873 49.4014 24.5887 47.2426C24.3848 47.0969 24.1808 46.9436 23.9769 46.7853C25.3793 45.4784 26.7464 43.9504 28.038 42.254C30.1906 41.9826 32.1947 41.5579 34.0049 41.005C34.0402 41.2588 34.0754 41.5127 34.1006 41.7615C34.4707 45.4357 33.7028 48.1047 31.9958 49.0899ZM35.5583 38.341C35.1253 36.4713 34.4833 34.5236 33.655 32.5557C34.4984 30.5553 35.1329 28.605 35.5583 26.7604C39.3575 28.316 41.5632 30.4698 41.5632 32.5482C41.5632 34.6266 39.3602 36.7829 35.5583 38.341Z" fill="#087EA4"/>
</g>
<defs>
<clipPath id="clip0_187_99">
<rect width="126.44" height="38" fill="white" transform="translate(1.27979 13.5477)"/>
</clipPath>
</defs>
</svg>
